<svg xmlns="http://www.w3.org/2000/svg" width="17.498" height="17.498" viewBox="0 0 17.498 17.498">
  <path id="ico" d="M14.582,14.582H11.665V11.665h2.916ZM10.207,7.291H7.291v2.916h2.916Zm4.375,0H11.665v2.916h2.916ZM5.833,11.665H2.916v2.916H5.833Zm4.375,0H7.291v2.916h2.916ZM5.833,7.291H2.916v2.916H5.833ZM17.5,1.458V17.5H0V1.458H2.187v.729a1.458,1.458,0,0,0,2.916,0V1.458h7.291v.729a1.458,1.458,0,1,0,2.916,0V1.458ZM16.04,5.833H1.458V16.04H16.04ZM14.582.729a.729.729,0,0,0-1.458,0V2.187a.729.729,0,1,0,1.458,0ZM4.375,2.187a.729.729,0,1,1-1.458,0V.729a.729.729,0,1,1,1.458,0Z" fill="gray"/>
</svg>