<svg xmlns="http://www.w3.org/2000/svg" width="170.61" height="170.61" viewBox="0 0 170.61 170.61">
  <g id="layout" transform="translate(10.835 10.835)">
    <path id="Path_1223" data-name="Path 1223"
      d="M155.49,155.491l-18.978-18.978a73.382,73.382,0,1,1,10.177-12.74"
      transform="translate(-11.038 -11.039)" fill="none" stroke="#fff" stroke-linecap="round"
      stroke-linejoin="round" stroke-width="21.67" />
    <circle id="Ellipse_133" data-name="Ellipse 133" cx="73.5" cy="73.5" r="73.5"
      transform="translate(0 0)" fill="#fff" stroke="#fff" stroke-width="21.67" />
    <path id="Path_1224" data-name="Path 1224"
      d="M155.49,155.491l-18.978-18.978a73.382,73.382,0,1,1,10.177-12.74"
      transform="translate(-11.038 -11.039)" fill="none" stroke="#0297b5" stroke-linecap="round"
      stroke-linejoin="round" stroke-width="7.5" opacity="0.602" />
    <path id="Path_1225" data-name="Path 1225"
      d="M73.8,142.787v2.71H67.717v2.867a17.435,17.435,0,0,1,3.239-.265c7.522,0,8.972,4.185,8.972,6.948a6.182,6.182,0,0,1-4.5,6.076,15.062,15.062,0,0,1-4.969.774L70,159.266c2.107-.029,6.791-.132,6.791-4.185,0-1.921-1.24-4.41-5.63-4.41a23.744,23.744,0,0,0-3.43.289v7.419c0,2.053-1.235,3.028-3.655,3.028-3.871,0-5.841-2.421-5.841-5.238,0-4.474,4.263-6.208,6.654-7.154v-3.5H58.72v-2.729h6.154V139.7h2.842v3.087Zm-8.894,8.918c-1.47.657-3.92,1.788-3.92,4.263a2.661,2.661,0,0,0,2.867,2.6c1.054,0,1.054-.446,1.054-.813Zm10.942-11.971a18.561,18.561,0,0,1,5.238,6.86l-2.582,1.583a20.546,20.546,0,0,0-4.9-6.919Z"
      transform="translate(-35.009 -76.554)" fill="#0297b5" />
    <path id="Path_1226" data-name="Path 1226"
      d="M134.455,142.008v2.71h-6.816v5.317a13.033,13.033,0,0,1,.49,3.548c0,7.394-7.051,8.237-10.917,8.394l-.921-2.68c7.659.078,8.658-2.582,8.947-4.528a3.648,3.648,0,0,1-3.606,2,4.921,4.921,0,0,1-4.944-5.184,5.188,5.188,0,0,1,5.473-5.341,3.92,3.92,0,0,1,2.631.843l-.029-2.367H112.14v-2.71h12.549l-.049-2.788h3v2.788Zm-9.6,8.761a2.413,2.413,0,0,0-2.607-2.21,2.99,2.99,0,0,0-.211,5.963,2.67,2.67,0,0,0,2.817-2.71Z"
      transform="translate(-62.498 -76.309)" fill="#0297b5" />
    <path id="Path_1227" data-name="Path 1227"
      d="M188.775,142.008v2.71h-6.821v5.317a13,13,0,0,1,.49,3.548c0,7.394-7.051,8.237-10.922,8.394l-.916-2.68c7.654.078,8.653-2.582,8.943-4.528a3.645,3.645,0,0,1-3.6,2A4.925,4.925,0,0,1,171,151.583a5.19,5.19,0,0,1,5.473-5.341,3.92,3.92,0,0,1,2.631.843v-2.367H166.46v-2.71h12.549l-.054-2.788h3v2.788Zm-9.6,8.761a2.413,2.413,0,0,0-2.607-2.21,2.991,2.991,0,0,0-.211,5.963,2.666,2.666,0,0,0,2.817-2.71Z"
      transform="translate(-90.201 -76.309)" fill="#0297b5" />
    <path id="Path_1228" data-name="Path 1228"
      d="M222.879,140.879a32.514,32.514,0,0,0,.789,4.528,13.921,13.921,0,0,1,6-1.74,38.025,38.025,0,0,0,.211-4.077l3.023.186c-.1,1.392-.235,2.94-.367,3.92,6.713.735,8.026,6.13,8.026,9.075,0,8.472-8.526,8.972-10.471,9.08l-.818-2.71c2.185-.108,8.448-.4,8.448-6.5,0-3.842-2.185-6.027-5.63-6.37-1.96,11.5-6.654,13.862-9.286,13.862-3.317,0-4.63-3.1-4.63-5.787a9.957,9.957,0,0,1,3.347-7.443,44.982,44.982,0,0,1-1.21-5.419Zm-.49,8.791a7.806,7.806,0,0,0-1.607,4.709c0,2.024.951,3,2.132,3a3.869,3.869,0,0,0,2.842-1.632,21.11,21.11,0,0,1-3.352-6.076Zm7.051-3.474a12.035,12.035,0,0,0-5.076,1.71,18.85,18.85,0,0,0,2.734,5.841,27.045,27.045,0,0,0,2.357-7.551Z"
      transform="translate(-116.573 -76.498)" fill="#0297b5" />
    <g id="Path_1229" data-name="Path 1229" transform="translate(-35.07 -108.245)" fill="#0297b5"
      stroke-linejoin="round">
      <path
        d="M 59.75154876708984 221.0999298095703 L 59.19854736328125 220.4652404785156 L 57.60604858398438 218.6375427246094 L 56.82014846801758 217.7355651855469 L 57.84719848632812 217.1221008300781 C 59.96509552001953 215.8570556640625 61.46233749389648 214.3409118652344 62.42448806762695 212.4870452880859 C 63.04790878295898 211.2858428955078 63.38677978515625 210.0589447021484 63.62813949584961 208.8670043945312 L 59.16359710693359 208.8670043945312 L 58.16359710693359 208.8670043945312 L 58.16359710693359 207.8670043945312 L 58.16359710693359 205.6179046630859 L 58.16359710693359 204.6179046630859 L 59.16359710693359 204.6179046630859 L 64.15010833740234 204.6179046630859 C 64.19969177246094 203.7616729736328 64.21022033691406 203.0193939208984 64.21022033691406 201.8399810791016 L 64.21022033691406 200.8220520019531 L 65.22797393798828 200.8401336669922 L 67.7122802734375 200.8842620849609 L 68.72693634033203 200.9022827148438 L 68.69398498535156 201.9165649414062 C 68.65948486328125 202.9789123535156 68.62387084960938 203.6422424316406 68.55496215820312 204.6178894042969 L 75.33363342285156 204.6178894042969 L 76.33363342285156 204.6178894042969 L 76.33363342285156 205.6178894042969 L 76.33363342285156 209.1165008544922 C 76.33363342285156 211.1390380859375 76.24341583251953 216.0657348632812 75.40771484375 218.1261596679688 C 74.96199035644531 219.2237701416016 74.11531066894531 220.0060729980469 72.95906829833984 220.3889007568359 C 72.08335876464844 220.6788330078125 71.21172332763672 220.6808776855469 70.73774719238281 220.6808929443359 C 70.62998199462891 220.6829986572266 70.52079772949219 220.6840667724609 70.41302490234375 220.6840667724609 C 69.36960601806641 220.68408203125 68.32088470458984 220.5847015380859 67.29600524902344 220.3887023925781 L 66.52064514160156 220.2404327392578 L 66.48486328125 219.4518280029297 L 66.37704467773438 217.0753173828125 L 66.31964874267578 215.8101501464844 L 67.56362915039062 216.0477600097656 C 68.53066253662109 216.2324523925781 69.51998138427734 216.3336334228516 70.50433349609375 216.3485107421875 C 71.14836120605469 216.3476867675781 71.31298065185547 216.2334442138672 71.32967376708984 216.2203826904297 C 71.37186431884766 216.1873779296875 71.42633056640625 216.0573272705078 71.49162292480469 215.8337249755859 C 71.74441528320312 214.8059692382812 71.94733428955078 211.5845489501953 71.94733428955078 209.5820007324219 L 71.94733428955078 208.8670043945312 L 68.073486328125 208.8670043945312 C 67.52554321289062 211.9385223388672 66.19908142089844 217.1878509521484 60.47123718261719 220.6632537841797 L 59.75154876708984 221.0999298095703 Z"
        stroke="none" />
      <path
        d="M 59.95249557495117 219.8083190917969 C 65.75901031494141 216.2851867675781 66.739013671875 210.8363952636719 67.22900390625 207.8670043945312 L 72.94733428955078 207.8670043945312 L 72.94733428955078 209.5820007324219 C 72.94733428955078 211.5762939453125 72.75132751464844 214.9279022216797 72.45731353759766 216.0941162109375 C 72.23682403564453 216.8585052490234 71.96732330322266 217.3485107421875 70.49732971191406 217.3485107421875 C 69.44963073730469 217.3331604003906 68.40523529052734 217.2265777587891 67.37601470947266 217.0299987792969 L 67.48383331298828 219.4065093994141 C 68.55257415771484 219.6108856201172 69.63973236083984 219.7028198242188 70.72763061523438 219.6808929443359 C 71.61943054199219 219.6808929443359 73.69703674316406 219.6808929443359 74.48103332519531 217.7503051757812 C 75.33363342285156 215.648193359375 75.33363342285156 209.7094116210938 75.33363342285156 209.1165008544922 L 75.33363342285156 205.6178894042969 L 67.47891998291016 205.6178894042969 C 67.6063232421875 203.9175872802734 67.65042877197266 203.2413787841797 67.69451904296875 201.8840942382812 L 65.21022033691406 201.8399810791016 C 65.21022033691406 203.4325103759766 65.19062042236328 204.2605895996094 65.08281707763672 205.6179046630859 L 59.16359710693359 205.6179046630859 L 59.16359710693359 207.8670043945312 L 64.82801055908203 207.8670043945312 C 64.29882049560547 210.9833984375 63.47070693969727 214.9279174804688 58.3599967956543 217.9806060791016 L 59.95249557495117 219.8083190917969 M 59.95346450805664 221.8083953857422 C 59.39101028442383 221.8083953857422 58.8361930847168 221.5716094970703 58.44458770751953 221.1221618652344 L 56.85208511352539 219.2944641113281 C 56.46285629272461 218.8477478027344 56.2917366027832 218.2514343261719 56.38484573364258 217.6662902832031 C 56.47796630859375 217.0811614990234 56.82573699951172 216.5674285888672 57.33439636230469 216.2635803222656 C 59.28816604614258 215.0965728759766 60.66281890869141 213.7105712890625 61.53690719604492 212.0263824462891 C 61.90738296508789 211.3125610351562 62.16787719726562 210.5931243896484 62.36752700805664 209.8670043945312 L 59.16359710693359 209.8670043945312 C 58.05902862548828 209.8670043945312 57.16359710693359 208.9715728759766 57.16359710693359 207.8670043945312 L 57.16359710693359 205.6179046630859 C 57.16359710693359 204.5133361816406 58.05902862548828 203.6179046630859 59.16359710693359 203.6179046630859 L 63.19197082519531 203.6179046630859 C 63.2063102722168 203.1046142578125 63.2102165222168 202.5540618896484 63.2102165222168 201.8399810791016 C 63.2102165222168 201.3033905029297 63.42583847045898 200.789306640625 63.80861663818359 200.4132690429688 C 64.19139862060547 200.0372161865234 64.70947265625 199.8308563232422 65.2457275390625 199.8403015136719 L 67.73002624511719 199.8844146728516 C 68.26548004150391 199.8939208984375 68.77474975585938 200.1177825927734 69.143798828125 200.5058441162109 C 69.51284790039062 200.8939208984375 69.71084594726562 201.4137725830078 69.69346618652344 201.9490203857422 C 69.67229461669922 202.6008148193359 69.6507568359375 203.1038665771484 69.62162780761719 203.6178894042969 L 75.33363342285156 203.6178894042969 C 76.43820953369141 203.6178894042969 77.33363342285156 204.5133209228516 77.33363342285156 205.6178894042969 L 77.33363342285156 209.1165008544922 C 77.33363342285156 211.7015991210938 77.20381927490234 216.3584289550781 76.33439636230469 218.5020141601562 C 75.77481842041016 219.8799591064453 74.71644592285156 220.8604278564453 73.27337646484375 221.3382110595703 C 72.25105285644531 221.6766967773438 71.27969360351562 221.6808471679688 70.74723815917969 221.6808929443359 C 70.63652801513672 221.6829986572266 70.52419281005859 221.6840667724609 70.41301727294922 221.6840667724609 C 69.30675506591797 221.68408203125 68.19484710693359 221.5787200927734 67.10817718505859 221.3709106445312 C 66.19893646240234 221.1970367431641 65.52784729003906 220.4219207763672 65.48589324951172 219.4971466064453 L 65.40322875976562 217.6750640869141 C 64.19992828369141 219.1799163818359 62.72442245483398 220.4657897949219 60.98996734619141 221.5181884765625 C 60.66777420043945 221.7136840820312 60.30904769897461 221.8083953857422 59.95346450805664 221.8083953857422 Z M 67.37601470947266 215.0299835205078 C 67.50090026855469 215.0299835205078 67.62644195556641 215.0416717529297 67.75123596191406 215.0655059814453 C 68.65887451171875 215.2388763427734 69.58747863769531 215.3340606689453 70.51138305664062 215.3484802246094 C 70.53238677978516 215.3484191894531 70.55242156982422 215.3482055664062 70.57155609130859 215.3478851318359 C 70.75629425048828 214.30908203125 70.92998504638672 211.7970428466797 70.94612121582031 209.8670043945312 L 68.89894866943359 209.8670043945312 C 68.62588500976562 211.1845397949219 68.18754577636719 212.8104248046875 67.39115905761719 214.4878082275391 C 67.30149841308594 214.6766510009766 67.20860290527344 214.8632965087891 67.11264801025391 215.0474090576172 C 67.19968414306641 215.0358428955078 67.28766632080078 215.0299835205078 67.37601470947266 215.0299835205078 Z"
        stroke="none" fill="#004098" />
    </g>
    <g id="Path_1230" data-name="Path 1230" transform="translate(-56.194 -116.369)" fill="#0297b5"
      stroke-linejoin="round">
      <path
        d="M 118.9786376953125 221.2543182373047 L 117.9786376953125 221.2543182373047 L 99.78000640869141 221.2543182373047 L 98.78000640869141 221.2543182373047 L 98.78000640869141 220.2543182373047 L 98.78000640869141 217.7700042724609 L 98.78000640869141 216.7700042724609 L 99.78000640869141 216.7700042724609 L 117.9786376953125 216.7700042724609 L 118.9786376953125 216.7700042724609 L 118.9786376953125 217.7700042724609 L 118.9786376953125 220.2543182373047 L 118.9786376953125 221.2543182373047 Z"
        stroke="none" />
      <path
        d="M 99.78000640869141 217.7700042724609 L 99.78000640869141 220.2543182373047 L 117.9786376953125 220.2543182373047 L 117.9786376953125 217.7700042724609 L 99.78000640869141 217.7700042724609 M 99.78000640869141 215.7700042724609 L 117.9786376953125 215.7700042724609 C 119.0832061767578 215.7700042724609 119.9786376953125 216.6654357910156 119.9786376953125 217.7700042724609 L 119.9786376953125 220.2543182373047 C 119.9786376953125 221.35888671875 119.0832061767578 222.2543182373047 117.9786376953125 222.2543182373047 L 99.78000640869141 222.2543182373047 C 98.67543792724609 222.2543182373047 97.78000640869141 221.35888671875 97.78000640869141 220.2543182373047 L 97.78000640869141 217.7700042724609 C 97.78000640869141 216.6654357910156 98.67543792724609 215.7700042724609 99.78000640869141 215.7700042724609 Z"
        stroke="none" fill="#004098" />
    </g>
    <g id="Path_1231" data-name="Path 1231" transform="translate(-79.328 -107.429)" fill="#0297b5"
      stroke-linejoin="round">
      <path
        d="M 148.6880035400391 220.1392974853516 L 147.6880035400391 220.1392974853516 L 145.1399841308594 220.1392974853516 L 144.1399841308594 220.1392974853516 L 144.1399841308594 219.1392974853516 L 144.1399841308594 201.0092926025391 L 144.1399841308594 200.0092926025391 L 145.1399841308594 200.0092926025391 L 147.6880035400391 200.0092926025391 L 148.6880035400391 200.0092926025391 L 148.6880035400391 201.0092926025391 L 148.6880035400391 205.5674285888672 C 150.1411743164062 206.055419921875 151.5757141113281 206.6041107177734 152.9857788085938 207.2109222412109 L 152.9045104980469 206.9911956787109 C 152.3972930908203 205.6198883056641 151.7063751220703 204.3234405517578 150.8509521484375 203.1379089355469 L 150.2007904052734 202.2368316650391 L 151.1651611328125 201.6848754882812 L 152.6890716552734 200.8126831054688 L 153.4558410644531 200.3738403320312 L 153.5979766845703 200.5633850097656 L 154.2296905517578 200.2131195068359 L 155.7584838867188 199.3654327392578 L 156.5178680419922 198.9443511962891 L 157.0412902832031 199.6371612548828 C 158.0236053466797 200.9373626708984 158.8432312011719 202.3578186035156 159.4773864746094 203.8590698242188 L 159.8224945068359 204.6760406494141 L 159.0526123046875 205.1162872314453 L 157.416015625 206.0521697998047 L 156.4049377441406 206.6303558349609 L 156.3122863769531 206.3897399902344 L 155.9734802246094 206.5824737548828 L 154.3368682861328 207.5134887695312 L 154.0447387695312 207.6796722412109 C 155.5156555175781 208.3490142822266 156.95703125 209.0817413330078 158.36181640625 209.8747711181641 L 159.1912384033203 210.3429718017578 L 158.7639465332031 211.1941986083984 L 157.509521484375 213.6932220458984 L 157.0058288574219 214.6966400146484 L 156.0671539306641 214.0806427001953 C 153.7431182861328 212.5555572509766 151.2664794921875 211.2603302001953 148.6880035400391 210.220458984375 L 148.6880035400391 219.1392974853516 L 148.6880035400391 220.1392974853516 Z"
        stroke="none" />
      <path
        d="M 147.6880035400391 219.1392974853516 L 147.6880035400391 208.7659912109375 C 150.8269500732422 209.9089202880859 153.8229217529297 211.4118194580078 156.6157989501953 213.2445983886719 L 157.8702239990234 210.7455902099609 C 154.6358337402344 208.9197235107422 151.2242279052734 207.4273376464844 147.6880035400391 206.2914886474609 L 147.6880035400391 201.0092926025391 L 145.1399841308594 201.0092926025391 L 145.1399841308594 219.1392974853516 L 147.6880035400391 219.1392974853516 M 153.8424072265625 206.644287109375 L 155.4790191650391 205.7132720947266 C 154.8877563476562 204.2777099609375 154.1172332763672 202.9226989746094 153.1858062744141 201.6805877685547 L 151.6618957519531 202.5527801513672 C 152.5703277587891 203.8117828369141 153.3038330078125 205.1881713867188 153.8424072265625 206.644287109375 M 156.9196014404297 205.18408203125 L 158.5562133789062 204.2481994628906 C 157.9536590576172 202.82177734375 157.1768341064453 201.4754638671875 156.243408203125 200.2399749755859 L 154.7146148681641 201.0876617431641 C 155.6192626953125 202.3547973632812 156.3601226806641 203.7311706542969 156.9196014404297 205.18408203125 M 147.6880035400391 221.1392974853516 L 145.1399841308594 221.1392974853516 C 144.0354156494141 221.1392974853516 143.1399841308594 220.2438659667969 143.1399841308594 219.1392974853516 L 143.1399841308594 201.0092926025391 C 143.1399841308594 199.9047241210938 144.0354156494141 199.0092926025391 145.1399841308594 199.0092926025391 L 147.6880035400391 199.0092926025391 C 148.7925720214844 199.0092926025391 149.6880035400391 199.9047241210938 149.6880035400391 201.0092926025391 L 149.6880035400391 202.2306976318359 C 149.6934814453125 202.1970977783203 149.6998443603516 202.1635131835938 149.7070770263672 202.1300659179688 C 149.8269195556641 201.5758819580078 150.1763458251953 201.0986022949219 150.6684265136719 200.8169708251953 L 152.1923370361328 199.9447784423828 C 152.5369567871094 199.7475433349609 152.9182891845703 199.6634521484375 153.2906799316406 199.6832427978516 C 153.4234924316406 199.5485687255859 153.5760040283203 199.43212890625 153.7447662353516 199.3385620117188 L 155.2735595703125 198.4908599853516 C 156.1447601318359 198.0078430175781 157.2386627197266 198.239501953125 157.8391723632812 199.0343627929688 C 158.8712158203125 200.4003601074219 159.7323150634766 201.8927001953125 160.3985748291016 203.4699401855469 C 160.7924346923828 204.4023132324219 160.4276580810547 205.48193359375 159.5490417480469 205.9843597412109 L 157.9124298095703 206.9202575683594 C 157.5821533203125 207.109130859375 157.2088012695312 207.1978454589844 156.8365631103516 207.182373046875 C 156.7263946533203 207.2840576171875 156.6032104492188 207.3747253417969 156.4679412841797 207.4516754150391 L 156.2060852050781 207.6006317138672 C 157.1013336181641 208.0453033447266 157.9841766357422 208.5132293701172 158.8534240722656 209.0039367675781 C 159.7823486328125 209.5283203125 160.13623046875 210.6894836425781 159.6576690673828 211.642822265625 L 158.4032440185547 214.1418304443359 C 158.1472625732422 214.6517791748047 157.6856689453125 215.0281219482422 157.1346282958984 215.1761322021484 C 156.5835723876953 215.3241271972656 155.9955291748047 215.229736328125 155.5185089111328 214.9167022705078 C 153.6653289794922 213.7005767822266 151.7129364013672 212.6342620849609 149.6880035400391 211.7311401367188 L 149.6880035400391 219.1392974853516 C 149.6880035400391 220.2438659667969 148.7925720214844 221.1392974853516 147.6880035400391 221.1392974853516 Z M 149.6880035400391 204.8532104492188 C 150.1497955322266 205.0148620605469 150.6093444824219 205.1824340820312 151.0670776367188 205.3560638427734 C 150.7600555419922 204.7911376953125 150.4170379638672 204.2455596923828 150.0400238037109 203.7230377197266 C 149.8564758300781 203.4686584472656 149.7374420166016 203.1777648925781 149.6880035400391 202.8748168945312 L 149.6880035400391 204.8532104492188 Z"
        stroke="none" fill="#004098" />
    </g>
    <g id="Path_1232" data-name="Path 1232" transform="translate(-96.086 -107.342)" fill="#0297b5"
      stroke-linejoin="round">
      <path
        d="M 186.6042785644531 221.08837890625 L 186.2516021728516 220.4113006591797 L 186.2324066162109 220.3744354248047 L 186.2324066162109 220.5671234130859 L 185.2324066162109 220.5671234130859 L 178.6565856933594 220.5671234130859 L 177.6565856933594 220.5671234130859 L 177.6565856933594 219.5671234130859 L 177.6565856933594 213.0501251220703 L 177.6565856933594 212.0493774414062 L 177.6565856933594 211.7613983154297 L 177.6565856933594 209.8945159912109 L 177.6565856933594 208.8945159912109 L 177.6565856933594 208.5568084716797 L 177.6565856933594 206.6506958007812 L 177.6565856933594 206.4992065429688 L 176.9999847412109 206.4992065429688 L 176.9999847412109 205.4992065429688 L 176.9999847412109 203.6078033447266 L 176.9999847412109 202.6078033447266 L 177.6565856933594 202.6078033447266 L 177.6565856933594 202.4857025146484 L 177.6565856933594 200.5550994873047 L 177.6565856933594 199.5543670654297 L 178.6573181152344 199.5550994873047 L 185.2331390380859 199.5599975585938 L 186.2324066162109 199.5607299804688 L 186.2324066162109 200.5599975585938 L 186.2324066162109 202.4857025146484 L 186.2324066162109 202.6078033447266 L 186.7420196533203 202.6078033447266 L 186.7420196533203 202.9206237792969 C 187.8355712890625 201.9292755126953 188.7976684570312 200.8045349121094 189.6151275634766 199.5601501464844 L 189.905029296875 199.1188201904297 L 190.4329833984375 199.1093597412109 L 192.6183929443359 199.0701599121094 L 193.2018432617188 199.0597076416016 L 193.4979858398438 199.5625305175781 C 194.8293304443359 201.8230285644531 196.6991882324219 203.7680969238281 198.9054565429688 205.1874084472656 L 199.7310638427734 205.7185516357422 L 199.2152709960938 206.5538177490234 L 198.0049743652344 208.5138092041016 L 197.4669036865234 209.3851776123047 L 196.6085968017578 208.8264923095703 C 195.8563537597656 208.3368530273438 195.1419677734375 207.7909851074219 194.4717712402344 207.1956787109375 L 194.0324096679688 207.5984954833984 C 191.4593200683594 209.9576110839844 189.8020324707031 210.9544677734375 187.9620056152344 211.7981872558594 L 187.1959991455078 212.1494445800781 L 186.7200012207031 211.4540557861328 L 186.2324066162109 210.7417144775391 L 186.2324066162109 211.7613983154297 L 186.2324066162109 212.5496826171875 C 188.9891357421875 211.7593994140625 191.5166625976562 210.2787475585938 193.5540924072266 208.2583770751953 L 194.2291564941406 207.5889587402344 L 194.9318084716797 208.2293395996094 L 196.4802093505859 209.6405029296875 L 197.2574005126953 210.3488006591797 L 196.7587432861328 210.8435974121094 L 197.4545440673828 211.5394134521484 L 198.9637451171875 213.0486145019531 L 199.6584777832031 213.7433624267578 L 198.9761047363281 214.4502563476562 C 195.8164825439453 217.7233428955078 191.7963714599609 219.9628448486328 187.3503723144531 220.9266510009766 L 186.6042785644531 221.08837890625 Z M 186.2324066162109 215.3161926269531 L 186.2324066162109 216.923828125 C 190.0001525878906 216.3245391845703 193.4601135253906 214.4344787597656 196.0006103515625 211.5814971923828 L 196.0072937011719 211.5739898681641 C 193.6859741210938 213.7390289306641 190.8986358642578 215.4281005859375 187.9056396484375 216.4780578613281 L 187.1696472167969 216.7362670898438 L 186.7400054931641 216.0852813720703 L 186.2324066162109 215.3161926269531 Z M 181.6068115234375 216.7198181152344 L 182.3213958740234 216.7198181152344 L 182.3213958740234 215.9023284912109 L 181.6068115234375 215.9023284912109 L 181.6068115234375 216.7198181152344 Z M 191.5201263427734 203.8408508300781 C 190.7276763916016 204.8509979248047 189.6965942382812 205.8756256103516 188.7561645507812 206.6995086669922 C 189.5697326660156 206.1410675048828 190.3314514160156 205.5061798095703 191.0358123779297 204.7986145019531 L 191.6848449707031 204.1466064453125 L 191.8070526123047 204.24951171875 C 191.7095794677734 204.1146545410156 191.6138763427734 203.9783630371094 191.5201263427734 203.8408508300781 Z"
        stroke="none" />
      <path
        d="M 192.6363220214844 200.0700073242188 L 190.4509124755859 200.1091918945312 C 189.1965484619141 202.0186920166016 187.6001129150391 203.6799163818359 185.7420196533203 205.0092010498047 L 185.7420196533203 203.6078033447266 L 177.9999847412109 203.6078033447266 L 177.9999847412109 205.4992065429688 L 185.0413055419922 205.4992065429688 L 186.3985900878906 207.2779083251953 C 187.7363128662109 206.4057159423828 190.5734100341797 203.8625946044922 191.5534210205078 201.9956970214844 C 192.9065246582031 204.4180603027344 194.8287200927734 206.4747772216797 197.1541290283203 207.9884033203125 L 198.3644256591797 206.0284118652344 C 196.0155639648438 204.5173492431641 194.0536804199219 202.4765777587891 192.6363220214844 200.0700073242188 M 178.6565856933594 200.5550994873047 L 178.6565856933594 202.4857025146484 L 185.2324066162109 202.4857025146484 L 185.2324066162109 200.5599975585938 L 178.6565856933594 200.5550994873047 M 191.7445220947266 205.5041046142578 C 190.1999359130859 207.0557403564453 188.3695983886719 208.2937164306641 186.3545074462891 209.1497192382812 L 187.5451965332031 210.8892059326172 C 189.4365997314453 210.0219116210938 190.9997100830078 209.0223236083984 193.3566131591797 206.8614044189453 L 191.7445220947266 205.5041046142578 M 178.6565856933594 206.6506958007812 L 178.6565856933594 208.5568084716797 L 185.2324066162109 208.5568084716797 L 185.2324066162109 206.6506958007812 L 178.6565856933594 206.6506958007812 M 194.2582244873047 208.9684448242188 C 192.0413970947266 211.1667175292969 189.2931365966797 212.7535247802734 186.281005859375 213.5744171142578 L 187.5746154785156 215.5344390869141 C 190.6676483154297 214.4493865966797 193.4798736572266 212.6883850097656 195.8066253662109 210.3796081542969 L 194.2582244873047 208.9684448242188 M 178.6565856933594 209.8945159912109 L 178.6565856933594 211.7613983154297 L 185.2324066162109 211.7613983154297 L 185.2324066162109 209.8945159912109 L 178.6565856933594 209.8945159912109 M 196.7474365234375 212.2465209960938 C 193.9850006103516 215.3487243652344 190.2123718261719 217.3713226318359 186.0997161865234 217.9550170898438 L 187.1385040283203 219.9493408203125 C 191.3759002685547 219.03076171875 195.2453155517578 216.8751983642578 198.2566375732422 213.7557220458984 L 196.7474365234375 212.2465209960938 M 178.6565856933594 213.0501251220703 L 178.6565856933594 219.5671234130859 L 185.2324066162109 219.5671234130859 L 185.2324066162109 213.0550231933594 L 178.6565856933594 213.0501251220703 M 183.3213958740234 217.7198181152344 L 180.6068115234375 217.7198181152344 L 180.6068115234375 214.9023284912109 L 183.3213958740234 214.9023284912109 L 183.3213958740234 217.7198181152344 M 192.636474609375 198.0700073242188 C 193.3438262939453 198.0700073242188 193.9997863769531 198.4440002441406 194.3596496582031 199.0550384521484 C 195.6120300292969 201.1815032958984 197.3710327148438 203.01123046875 199.4465026855469 204.3464202880859 C 200.3633270263672 204.9362182617188 200.6389007568359 206.1516571044922 200.0661315917969 207.0792236328125 L 198.8558349609375 209.0392150878906 C 198.601318359375 209.4513702392578 198.2069702148438 209.7555389404297 197.7478485107422 209.8982543945312 C 197.7831878662109 210.040771484375 197.8030090332031 210.1879119873047 197.8061676025391 210.3371429443359 C 197.8076629638672 210.4070739746094 197.8054809570312 210.4766693115234 197.7997283935547 210.5457153320312 C 197.929931640625 210.6262817382812 198.0515289306641 210.7221832275391 198.1616516113281 210.8323211669922 L 199.6708526611328 212.3415069580078 C 200.4421691894531 213.1128387451172 200.4531707763672 214.3599700927734 199.6955718994141 215.144775390625 C 196.3980102539062 218.5607757568359 192.2023620605469 220.8980560302734 187.5622253417969 221.9039459228516 C 186.9390563964844 222.0389862060547 186.3064422607422 221.867431640625 185.8421173095703 221.4724884033203 C 185.6498718261719 221.5339508056641 185.4450378417969 221.5671234130859 185.2324066162109 221.5671234130859 L 178.6565856933594 221.5671234130859 C 177.5520172119141 221.5671234130859 176.6565856933594 220.6716918945312 176.6565856933594 219.5671234130859 L 176.6565856933594 213.0501251220703 C 176.6565856933594 212.8291473388672 176.6931610107422 212.6119384765625 176.762939453125 212.4066009521484 C 176.6939849853516 212.2041625976562 176.6565856933594 211.9871826171875 176.6565856933594 211.7613983154297 L 176.6565856933594 209.8945159912109 C 176.6565856933594 209.6599731445312 176.6969909667969 209.4347686767578 176.7711639404297 209.2256622314453 C 176.6969909667969 209.0165405273438 176.6565856933594 208.7913513183594 176.6565856933594 208.5568084716797 L 176.6565856933594 206.9808654785156 C 176.2532501220703 206.6149597167969 175.9999847412109 206.0866851806641 175.9999847412109 205.4992065429688 L 175.9999847412109 203.6078033447266 C 175.9999847412109 203.0203247070312 176.2532501220703 202.4920349121094 176.6565856933594 202.1261444091797 L 176.6565856933594 200.5550994873047 C 176.6565856933594 200.0244140625 176.8675079345703 199.5154876708984 177.2428894042969 199.1403656005859 C 177.6179351806641 198.765625 178.1264801025391 198.5550994873047 178.6566009521484 198.5550994873047 C 178.6571197509766 198.5550994873047 178.6575622558594 198.5550994873047 178.6580810546875 198.5550994873047 L 185.2339019775391 198.5599975585938 C 186.337890625 198.5608215332031 187.2324066162109 199.4560089111328 187.2324066162109 200.5599975585938 L 187.2324066162109 201.0150299072266 C 187.7961578369141 200.3903198242188 188.3127899169922 199.7213134765625 188.7793273925781 199.0111083984375 C 189.1421508789062 198.4588012695312 189.7543487548828 198.1213684082031 190.4150543212891 198.1095123291016 L 192.6004638671875 198.0703277587891 C 192.6124725341797 198.0701141357422 192.6244812011719 198.0700073242188 192.636474609375 198.0700073242188 Z"
        stroke="none" fill="#004098" />
    </g>
    <g id="Path_1233" data-name="Path 1233" transform="translate(-119.766 -107.077)" fill="#0297b5"
      stroke-linejoin="round">
      <path
        d="M 235.8502349853516 221.0312957763672 L 235.0078582763672 220.3929595947266 L 234.6872406005859 220.1500244140625 L 233.872314453125 220.1500244140625 L 224.4299774169922 220.1500244140625 L 223.4299774169922 220.1500244140625 L 223.4299774169922 219.1500244140625 L 223.4299774169922 200.4613952636719 L 223.4299774169922 199.4613952636719 L 224.4299774169922 199.4613952636719 L 226.5320739746094 199.4613952636719 L 227.5320739746094 199.4613952636719 L 227.5320739746094 200.1743621826172 L 228.7326049804688 199.9964752197266 L 229.0453796386719 199.9501342773438 L 229.0453796386719 199.7705078125 L 229.0453796386719 198.7705078125 L 230.0453796386719 198.7705078125 L 231.9122924804688 198.7705078125 L 232.9122924804688 198.7705078125 L 232.9122924804688 199.7705078125 L 232.9122924804688 199.8395233154297 L 233.6049499511719 199.961669921875 L 235.3003692626953 200.2606201171875 L 235.7384033203125 200.3378601074219 C 237.9060974121094 200.1501312255859 240.0012817382812 199.5816192626953 241.9692230224609 198.6467590332031 L 242.8605804443359 198.2233276367188 L 243.2958068847656 199.1089935302734 L 244.2758026123047 201.1032867431641 L 244.7278137207031 202.0231018066406 L 243.7971496582031 202.4523773193359 C 242.1700592041016 203.202880859375 240.4574432373047 203.7296752929688 238.6943206787109 204.0227966308594 L 238.6943054199219 205.1405029296875 L 243.5743255615234 205.1405029296875 L 244.5743255615234 205.1405029296875 L 244.5743255615234 206.1405029296875 L 244.5743255615234 208.4337158203125 L 244.5743255615234 209.4337158203125 L 243.5743255615234 209.4337158203125 L 243.0455169677734 209.4337158203125 L 243.0455169677734 219.5910339355469 L 243.0455169677734 220.5910339355469 L 242.0455169677734 220.5910339355469 L 239.8993225097656 220.5910339355469 L 238.8993225097656 220.5910339355469 L 238.8993225097656 219.5910339355469 L 238.8993225097656 209.4385986328125 L 238.6698150634766 209.4385986328125 L 238.6698150634766 210.1144104003906 C 238.6698150634766 212.1391448974609 238.45263671875 217.1706390380859 236.4409942626953 220.1548919677734 L 235.8502349853516 221.0312957763672 Z M 232.9122924804688 216.1018371582031 L 233.6950073242188 216.1018371582031 C 233.8153076171875 215.7693023681641 233.9199829101562 215.4273529052734 234.0108489990234 215.0805206298828 L 233.7339019775391 215.5155181884766 L 232.9122924804688 214.3516845703125 L 232.9122924804688 216.1018371582031 Z M 227.8124389648438 216.1018371582031 L 229.0453796386719 216.1018371582031 L 229.0453796386719 214.6417694091797 C 228.8380432128906 214.9116668701172 228.6219482421875 215.1753387451172 228.3974456787109 215.4322967529297 L 227.8124389648438 216.1018371582031 Z M 233.7796630859375 209.1691284179688 C 234.0327301025391 209.54541015625 234.2955474853516 209.9153747558594 234.5674743652344 210.2781066894531 C 234.567626953125 210.2413330078125 234.5677032470703 210.2046356201172 234.5677032470703 210.1683349609375 L 234.5699157714844 209.1691284179688 L 234.3917083740234 209.1691284179688 L 233.7796630859375 209.1691284179688 Z M 227.5320739746094 209.1593017578125 L 227.5320739746094 210.1870574951172 C 227.754638671875 209.8504791259766 227.9677734375 209.5078430175781 228.1713714599609 209.1593017578125 L 227.5320739746094 209.1593017578125 Z"
        stroke="none" />
      <path
        d="M 242.3983154296875 199.5500183105469 C 240.2587738037109 200.56640625 237.9494934082031 201.1777954101562 235.5872955322266 201.3532104492188 L 235.5677032470703 210.1683349609375 C 235.5677032470703 212.6918334960938 235.2295989990234 215.7886352539062 233.872314453125 218.0818481445312 L 233.872314453125 217.1018371582031 L 226.5222930908203 217.1018371582031 L 226.5222930908203 213.1818237304688 L 227.6443939208984 214.7743225097656 C 228.6232452392578 213.6540222167969 229.4322204589844 212.39599609375 230.0453796386719 211.04052734375 L 230.0453796386719 216.1855163574219 L 231.9122924804688 216.1855163574219 L 231.9122924804688 210.7514343261719 C 232.4300842285156 211.7843322753906 233.024658203125 212.7769165039062 233.6910095214844 213.7208251953125 L 234.7298126220703 212.089111328125 C 233.6993560791016 210.865234375 232.7779235839844 209.5535583496094 231.9759979248047 208.1691284179688 L 234.3917083740234 208.1691284179688 L 234.3917083740234 206.2384948730469 L 231.9122924804688 206.2384948730469 L 231.9122924804688 199.7705078125 L 230.0453796386719 199.7705078125 L 230.0453796386719 206.2286987304688 L 227.1053924560547 206.2286987304688 L 227.1053924560547 208.1593017578125 L 229.8395843505859 208.1593017578125 C 228.9613647460938 209.9603271484375 227.8492431640625 211.6375427246094 226.5320739746094 213.1475219726562 L 226.5320739746094 200.4613952636719 L 224.4299774169922 200.4613952636719 L 224.4299774169922 219.1500244140625 L 233.872314453125 219.1500244140625 L 233.872314453125 218.27783203125 L 235.6118011474609 219.595947265625 C 237.2434997558594 217.1753234863281 237.6698150634766 212.9956359863281 237.6698150634766 210.1144104003906 L 237.6698150634766 208.4385986328125 L 239.8993225097656 208.4385986328125 L 239.8993225097656 219.5910339355469 L 242.0455169677734 219.5910339355469 L 242.0455169677734 208.4337158203125 L 243.5743255615234 208.4337158203125 L 243.5743255615234 206.1405029296875 L 237.6943054199219 206.1405029296875 L 237.6943359375 203.1564025878906 C 239.6613311767578 202.9181213378906 241.5791015625 202.3742065429688 243.3783111572266 201.5443115234375 L 242.3983154296875 199.5500183105469 M 233.4313049316406 200.9464721679688 C 233.245361328125 202.2381896972656 232.9166870117188 203.5052490234375 232.4512939453125 204.7244262695312 L 234.0045928955078 205.2340087890625 C 234.4888305664062 203.9379577636719 234.8641357421875 202.6037902832031 235.1267242431641 201.2454223632812 L 233.4313049316406 200.9464721679688 M 228.8791809082031 200.9856872558594 L 227.1592864990234 201.2405090332031 C 227.4734497070312 202.5379333496094 227.6815643310547 203.8587341308594 227.7815856933594 205.1899108886719 L 229.4084167480469 204.8273010253906 C 229.3224945068359 203.5359497070312 229.1456451416016 202.2522277832031 228.8791809082031 200.9856872558594 M 242.3969573974609 197.5495758056641 C 243.1361389160156 197.5495758056641 243.8459014892578 197.9610290527344 244.1932983398438 198.66796875 L 245.1732940673828 200.6622467041016 C 245.4109954833984 201.1459655761719 245.4434051513672 201.7051239013672 245.2631988525391 202.2130584716797 C 245.0829772949219 202.7209930419922 244.7053985595703 203.1346893310547 244.2160034179688 203.3604278564453 C 243.5816345214844 203.6530303955078 242.9349975585938 203.9132080078125 242.2777252197266 204.1405029296875 L 243.5743255615234 204.1405029296875 C 244.6788940429688 204.1405029296875 245.5743255615234 205.0359344482422 245.5743255615234 206.1405029296875 L 245.5743255615234 208.4337158203125 C 245.5743255615234 209.3759460449219 244.9226684570312 210.166015625 244.0455169677734 210.3778839111328 L 244.0455169677734 219.5910339355469 C 244.0455169677734 220.6956024169922 243.1500854492188 221.5910339355469 242.0455169677734 221.5910339355469 L 239.8993225097656 221.5910339355469 C 238.8058013916016 221.5910339355469 237.9172668457031 220.7135009765625 237.8995971679688 219.6242065429688 C 237.7049560546875 220.0167846679688 237.4950866699219 220.3802337646484 237.2702026367188 220.7138366699219 C 236.9629821777344 221.1696014404297 236.4817504882812 221.4788360595703 235.9395446777344 221.5689086914062 C 235.397216796875 221.6589202880859 234.8419647216797 221.5219421386719 234.4039001464844 221.1899871826172 L 234.2927398681641 221.1057586669922 C 234.1571807861328 221.1347503662109 234.0165252685547 221.1500244140625 233.872314453125 221.1500244140625 L 224.4299774169922 221.1500244140625 C 223.3254089355469 221.1500244140625 222.4299774169922 220.2545928955078 222.4299774169922 219.1500244140625 L 222.4299774169922 200.4613952636719 C 222.4299774169922 199.3568267822266 223.3254089355469 198.4613952636719 224.4299774169922 198.4613952636719 L 226.5320739746094 198.4613952636719 C 227.1083526611328 198.4613952636719 227.6277618408203 198.7051849365234 227.9927368164062 199.0951995849609 L 228.1719970703125 199.0686340332031 C 228.4562377929688 198.3102569580078 229.1877593994141 197.7705078125 230.0453796386719 197.7705078125 L 231.9122924804688 197.7705078125 C 232.7327575683594 197.7705078125 233.4378509521484 198.2645874023438 233.7462768554688 198.9714202880859 C 233.7570648193359 198.97314453125 233.7678375244141 198.9749603271484 233.7785949707031 198.9768524169922 L 235.4740142822266 199.2758026123047 C 235.5577697753906 199.2905731201172 235.6399841308594 199.3105621337891 235.7203369140625 199.3355407714844 C 237.7445373535156 199.1522064208984 239.7010803222656 198.6171264648438 241.5401306152344 197.7434997558594 C 241.8170318603516 197.6119689941406 242.1092834472656 197.5495758056641 242.3969573974609 197.5495758056641 Z"
        stroke="none" fill="#004098" />
    </g>
    <path id="Path_1234" data-name="Path 1234"
      d="M130.32,47.742h.637V44.386h-.637v-.823h9.266v.823h-4.792v4.807h-.931v-.8c-.583.069-2.151.216-3.43.265Zm.862-7.482h7.492v2.813h-7.492Zm.706,4.126v.593h1.96v-.593Zm0,1.318v.588h1.96V45.7Zm1.96,1.313h-1.96v.706a17.875,17.875,0,0,0,1.96-.137ZM132.2,40.975v.461h5.444v-.461Zm0,.98v.461h5.444v-.461Zm4.072,3.945a3.685,3.685,0,0,0,.892,1.215,3.739,3.739,0,0,0,.98-1.411h-3.077v-.8h4.1v.843a4.871,4.871,0,0,1-1.245,1.921,6.634,6.634,0,0,0,1.656.617l-.519.911a6.331,6.331,0,0,1-1.891-.892,5.919,5.919,0,0,1-1.921.892l-.372-.862a6.3,6.3,0,0,0,1.548-.647,4.258,4.258,0,0,1-1.019-1.539Z"
      transform="translate(-71.77 -25.839)" fill="#0297b5" />
    <path id="Path_1235" data-name="Path 1235"
      d="M151.847,43.449h1.916v2.94c.318,1.3,2.053,1.3,2.171,1.3h5.145l-.2.98h-4.949a4.131,4.131,0,0,1-1.421-.284,2.406,2.406,0,0,1-.98-.8,9.153,9.153,0,0,1-1.343,1.343l-.49-1.078a8.282,8.282,0,0,0,1.058-.735V44.438h-.911Zm.828-3.631a11.028,11.028,0,0,1,1.47,1.725l-.828.637a13.132,13.132,0,0,0-1.352-1.774Zm5.88,6.787h-2.626V44.517h1.147v-.559h-1.47V43.2h1.47v-.657H155.39V47.2h-.921v-5.39h1.3c-.059-.265-.147-.627-.167-.715h-1.47v-.853h2.862V39.7h.98v.539h2.94v.833H159.4a6.422,6.422,0,0,1-.206.735h1.343v4.7a.75.75,0,0,1-.8.8h-1.078Zm-2.043-5.532c.059.255.069.3.137.715h1.735a3.812,3.812,0,0,0,.176-.715Zm.206,4.141V45.9h1.588v-.661Zm2.715,1.186c.127,0,.216,0,.216-.225V42.542h-1.7V43.2h1.47v.759h-1.47v.559h1.156V46.4Z"
      transform="translate(-82.673 -25.554)" fill="#0297b5" />
    <path id="Path_1236" data-name="Path 1236"
      d="M178,41.625v1.029h-2.132a23.813,23.813,0,0,1-1.627,5.032l-1.117-.441a15.308,15.308,0,0,0,1.637-4.591h-1.519V41.625h1.715A12.3,12.3,0,0,0,175.1,40.4l1.156.039c-.083.617-.118.823-.186,1.186Zm1.833,3.92a7.223,7.223,0,0,1,1.989,1.421l-.647.98a5.287,5.287,0,0,0-1.411-1.225v.343c0,1.254-.98,1.715-1.989,1.715-1.5,0-2.249-.823-2.249-1.774,0-.813.637-1.872,2.323-1.872a4.253,4.253,0,0,1,.9.088l-.049-2h1.088Zm-1.058.657a2.479,2.479,0,0,0-.926-.167c-.853,0-1.308.4-1.308.921,0,.176.054.862,1.235.862.784,0,.98-.363.98-1.019Zm2.45-2.847a13.622,13.622,0,0,0-2.685-1.284l.451-.921a14.294,14.294,0,0,1,2.734,1.235Z"
      transform="translate(-93.598 -25.911)" fill="#0297b5" />
    <path id="Path_1237" data-name="Path 1237"
      d="M75.948,76.7c2.842-.568,5.346-2.146,5.88-5.88H78.574a8.154,8.154,0,0,1-2.519,2.607l-.7-.823a6.86,6.86,0,0,0,2.489-2.8h5.277c-.412,5.106-3.288,7.193-6.728,7.938Z"
      transform="translate(-43.74 -40.905)" fill="#0297b5" />
    <path id="Path_1238" data-name="Path 1238"
      d="M97.256,76c2.479-.284,4.214-1.3,5.243-4.586l.98.6c-1.205,3.332-2.969,5.018-7.389,5.2V69.18h1.156Z"
      transform="translate(-54.312 -40.588)" fill="#0297b5" />
    <path id="Path_1239" data-name="Path 1239"
      d="M117.557,72.823a12.6,12.6,0,0,0-2.827-1.176l.407-.931a11.344,11.344,0,0,1,2.862,1.1Zm-2.3,2.372c3.749-.372,5.39-1.646,6.5-5.155l.941.676c-1.343,3.7-3.224,5.116-7.2,5.645Zm3.112-4.7a13.274,13.274,0,0,0-2.881-1.127l.421-.911a13.348,13.348,0,0,1,2.94,1.049Zm2.636-2.871a8.958,8.958,0,0,1,.911,1.891l-.725.363a8.33,8.33,0,0,0-.862-1.921Zm1.617-.059a8.589,8.589,0,0,1,.872,1.911l-.735.343a7.9,7.9,0,0,0-.823-1.931Z"
      transform="translate(-63.819 -39.762)" fill="#0297b5" />
    <path id="Path_1240" data-name="Path 1240"
      d="M136.264,76.048a8.933,8.933,0,0,0-.784-2.411l.9-.245a10.78,10.78,0,0,1,.843,2.45Zm-.078,2.519c3.175-.657,4.381-2,4.939-5.449l1.068.235c-.617,2.94-1.607,5.135-5.341,6.047Zm2.234-2.979a11.151,11.151,0,0,0-.657-2.372l.882-.2a10.835,10.835,0,0,1,.715,2.352Z"
      transform="translate(-74.401 -42.547)" fill="#0297b5" />
    <path id="Path_1241" data-name="Path 1241"
      d="M160.971,74.455a20.271,20.271,0,0,0-4.136-2.068v4.8H155.65V68.82h1.186v2.421a25.313,25.313,0,0,1,4.7,2.078Z"
      transform="translate(-84.688 -40.405)" fill="#0297b5" />
    <path id="Path_1242" data-name="Path 1242"
      d="M169.55,76.318a5.921,5.921,0,0,0,2.994-4.675h-2.622V70.6h2.734c.054-.627.059-1.009.059-1.744h1.151c0,.627-.039.941-.1,1.725H177.4V72.2a16.376,16.376,0,0,1-.392,3.989,1.683,1.683,0,0,1-1.735.892,7.2,7.2,0,0,1-1.5-.127l-.049-1.1A8.271,8.271,0,0,0,175.17,76c.676,0,.8-.225.9-.578a18.222,18.222,0,0,0,.225-3.009v-.774h-2.646a7.313,7.313,0,0,1-3.366,5.517Z"
      transform="translate(-91.777 -40.425)" fill="#0297b5" />
    <path id="Path_1243" data-name="Path 1243" d="M198.488,76.22v1.147H190.08V76.22Z"
      transform="translate(-102.247 -44.179)" fill="#0297b5" />
    <path id="Path_1244" data-name="Path 1244"
      d="M218.592,74.127a20.051,20.051,0,0,0-4.126-2.068v4.792H213.29V68.483h1.176v2.45a25.32,25.32,0,0,1,4.7,2.058Zm-1.578-5.341a8.422,8.422,0,0,1,1.058,1.862l-.755.431a7.969,7.969,0,0,0-1.009-1.891Zm1.411-.666a8.566,8.566,0,0,1,1.093,1.852l-.755.431a8.556,8.556,0,0,0-1.019-1.891Z"
      transform="translate(-114.084 -40.048)" fill="#0297b5" />
    <path id="Path_1245" data-name="Path 1245"
      d="M229.06,75.757a16.591,16.591,0,0,0,1.676-4.939h-1.529V69.788h1.7A16.632,16.632,0,0,0,231.079,68l1.151.088c-.078.725-.118,1.009-.23,1.7h.951c1.421,0,1.989.588,1.989,2.626,0,3.695-1.225,3.871-2.078,3.871a6.043,6.043,0,0,1-1.132-.127l-.059-1.068a5.419,5.419,0,0,0,.98.137c.49,0,.853-.225,1.019-.9a9.686,9.686,0,0,0,.245-2.127c0-.784-.049-1.4-1.009-1.392h-1.088a20.055,20.055,0,0,1-1.749,5.5ZM236.1,73.64a6.166,6.166,0,0,0-1.47-3.871l.769-.549a7.1,7.1,0,0,1,1.833,4.253Zm0-5.684a8.657,8.657,0,0,1,1.176,1.744l-.647.461a8.1,8.1,0,0,0-1.127-1.784Zm1.137-.7A8.173,8.173,0,0,1,238.414,69l-.637.461a8.772,8.772,0,0,0-1.137-1.784Z"
      transform="translate(-122.127 -39.609)" fill="#0297b5" />
    <path id="Path_1246" data-name="Path 1246"
      d="M126.9,104.473c0,.245.127.284.235.284h1.47c.451,0,.49,0,.519-1.431l1.009.314c0,1.823-.3,2.087-1.088,2.087h-2.3a.764.764,0,0,1-.853-.823v-1.96h-1.152a3.95,3.95,0,0,1-3.381,2.94l-.49-1.1a2.98,2.98,0,0,0,2.842-1.852H121.86V97h7.35v5.949h-2.274Zm1.264-6.556H122.85v.823h5.317Zm0,1.646H122.85v.823h5.317Zm0,1.646H122.85v.872h5.317Z"
      transform="translate(-66.95 -54.777)" fill="#0297b5" />
    <path id="Path_1247" data-name="Path 1247"
      d="M144.305,104.871c1.186,0,4.665,0,4.665-2.754,0-.9-.431-1.989-2.176-1.989a22.825,22.825,0,0,0-4.9.892L141.63,99.8l2.636-.451a15.221,15.221,0,0,1,2.617-.3,2.96,2.96,0,0,1,3.263,3.048,3.43,3.43,0,0,1-2.332,3.3,9.183,9.183,0,0,1-3.185.539Z"
      transform="translate(-77.538 -55.822)" fill="#0297b5" />
    <path id="Path_1248" data-name="Path 1248"
      d="M162,104.9a18.973,18.973,0,0,0,1.676-5.067h-1.47V98.785h1.646a16.243,16.243,0,0,0,.206-1.735l1.166.059c-.1.745-.147,1.058-.265,1.676h.98c1.328,0,2.141.461,2.141,2.646a8.791,8.791,0,0,1-.49,2.94,1.664,1.664,0,0,1-1.759.98,8.781,8.781,0,0,1-1.117-.069l-.059-1.107a5.282,5.282,0,0,0,1.029.108c.681,0,.867-.284,1.034-.843a8.1,8.1,0,0,0,.265-2.117c0-1.352-.372-1.539-1.47-1.529h-.745a24.989,24.989,0,0,1-1.7,5.566Zm7.477-2.484a6.9,6.9,0,0,0-1.313-3.92l.921-.49a6.586,6.586,0,0,1,1.548,4.214Z"
      transform="translate(-87.926 -54.802)" fill="#0297b5" />
    <path id="Path_1249" data-name="Path 1249"
      d="M189.305,98.492c-.784.578-1.715,1.333-2.568,2a4.9,4.9,0,0,1,1.47-.265,2.422,2.422,0,0,1,2.656,2.519c0,1.921-1.607,2.969-3.548,2.969-1.686,0-2.577-.764-2.577-1.676a1.591,1.591,0,0,1,1.735-1.47,2.45,2.45,0,0,1,2.352,1.8,1.793,1.793,0,0,0,.951-1.617c0-.715-.363-1.656-1.96-1.656s-2.871.98-4.234,2.244l-.632-.921c.284-.206,2.073-1.568,4.6-3.8-1.166.088-1.921.118-3.557.157V97.728c2.264,0,3.2,0,5.321-.118Zm-2.852,4.959c-.519,0-.755.323-.755.549,0,.421.49.853,1.548.853a4.7,4.7,0,0,0,.7-.078,1.551,1.551,0,0,0-1.49-1.323Z"
      transform="translate(-98.611 -55.088)" fill="#0297b5" />
  </g>
</svg>