<svg xmlns="http://www.w3.org/2000/svg" xmlns:xlink="http://www.w3.org/1999/xlink" width="116" height="90" viewBox="0 0 116 90">
  <defs>
    <clipPath id="clip-path">
      <path id="_6669899fbfc7e73c806c7a89098cf094" data-name="6669899fbfc7e73c806c7a89098cf094" d="M3,0H116a0,0,0,0,1,0,0V90a0,0,0,0,1,0,0H3a3,3,0,0,1-3-3V3A3,3,0,0,1,3,0Z" transform="translate(264 624)" fill="#7c7c7c" style="mix-blend-mode: multiply;isolation: isolate"/>
    </clipPath>
    <clipPath id="clip-path-2">
      <rect id="長方形_24736" data-name="長方形 24736" width="111.048" height="83.183"/>
    </clipPath>
  </defs>
  <g id="マスクグループ_13" data-name="マスクグループ 13" transform="translate(-264 -624)" clip-path="url(#clip-path)">
    <g id="AdobeStock_164687382_更新済み_" data-name="AdobeStock_164687382 [更新済み]" transform="translate(227.397 547.769)">
      <g id="グループ_14620" data-name="グループ 14620" transform="translate(22.72 83.047)" clip-path="url(#clip-path-2)">
        <g id="グループ_14617" data-name="グループ 14617" transform="translate(-13.755 -13.973)">
          <rect id="長方形_24731" data-name="長方形 24731" width="144.288" height="113.995" fill="#fff"/>
          <g id="グループ_14613" data-name="グループ 14613" transform="translate(24.18 16.92)">
            <g id="グループ_14609" data-name="グループ 14609" transform="translate(55.183 41.837)">
              <g id="グループ_14608" data-name="グループ 14608">
                <path id="パス_44804" data-name="パス 44804" d="M79.438,124.083l12.063-2.32v3.384l-12.063,2.074Z" transform="translate(-79.438 -121.764)" fill="#3386af"/>
                <path id="パス_44805" data-name="パス 44805" d="M79.438,129.439l12.063-1.8v3.384l-12.063,1.556Z" transform="translate(-79.438 -120.843)" fill="#3386af"/>
                <path id="パス_44806" data-name="パス 44806" d="M79.438,134.8,91.5,133.513V136.9l-12.063,1.037Z" transform="translate(-79.438 -119.922)" fill="#3386af"/>
                <path id="パス_44807" data-name="パス 44807" d="M79.438,140.152l12.063-.764v3.384l-12.063.519Z" transform="translate(-79.438 -119.001)" fill="#3386af"/>
                <path id="パス_44808" data-name="パス 44808" d="M79.438,145.512l12.063-.273v3.411H79.438Z" transform="translate(-79.438 -118.084)" fill="#3386af"/>
                <path id="パス_44809" data-name="パス 44809" d="M79.438,124.083l12.063-2.32v3.384l-12.063,2.074Z" transform="translate(-79.438 -121.764)" fill="#3386af" opacity="0.54"/>
                <path id="パス_44810" data-name="パス 44810" d="M79.438,129.439l12.063-1.8v3.384l-12.063,1.556Z" transform="translate(-79.438 -120.843)" fill="#3386af" opacity="0.54"/>
                <path id="パス_44811" data-name="パス 44811" d="M79.438,134.8,91.5,133.513V136.9l-12.063,1.037Z" transform="translate(-79.438 -119.922)" fill="#3386af" opacity="0.54"/>
                <path id="パス_44812" data-name="パス 44812" d="M79.438,140.152l12.063-.764v3.384l-12.063.519Z" transform="translate(-79.438 -119.001)" fill="#3386af" opacity="0.54"/>
                <path id="パス_44813" data-name="パス 44813" d="M79.438,145.512l12.063-.273v3.411H79.438Z" transform="translate(-79.438 -118.084)" fill="#3386af" opacity="0.54"/>
                <path id="パス_44814" data-name="パス 44814" d="M103.975,124.465v3.084l-14.11-2.4v-3.384Z" transform="translate(-77.803 -121.764)" fill="#3386af"/>
                <path id="パス_44815" data-name="パス 44815" d="M103.975,129.74v3.084l-14.11-1.8v-3.384Z" transform="translate(-77.803 -120.843)" fill="#3386af"/>
                <path id="パス_44816" data-name="パス 44816" d="M103.975,135.014V138.1l-14.11-1.2v-3.384Z" transform="translate(-77.803 -119.922)" fill="#3386af"/>
                <path id="パス_44817" data-name="パス 44817" d="M103.975,140.288v3.084l-14.11-.6v-3.384Z" transform="translate(-77.803 -119.001)" fill="#3386af"/>
                <path id="パス_44818" data-name="パス 44818" d="M103.975,145.539v3.111H89.866v-3.411Z" transform="translate(-77.803 -118.084)" fill="#3386af"/>
              </g>
            </g>
            <rect id="長方形_24732" data-name="長方形 24732" width="10.452" height="66.863" transform="translate(50.052 5.54)" fill="#fff"/>
            <g id="グループ_14611" data-name="グループ 14611" transform="translate(9.497 28.246)">
              <g id="グループ_14610" data-name="グループ 14610">
                <path id="パス_44819" data-name="パス 44819" d="M64.207,113.371l-12.09-3.357V113.4l12.09,3.111Z" transform="translate(-38.035 -110.014)" fill="#3386af"/>
                <path id="パス_44820" data-name="パス 44820" d="M64.207,118.727l-12.09-2.838v3.384l12.09,2.593Z" transform="translate(-38.035 -109.093)" fill="#3386af"/>
                <path id="パス_44821" data-name="パス 44821" d="M64.207,124.083l-12.09-2.32v3.384l12.09,2.074Z" transform="translate(-38.035 -108.173)" fill="#3386af"/>
                <path id="パス_44822" data-name="パス 44822" d="M64.207,129.439l-12.09-1.8v3.384l12.09,1.556Z" transform="translate(-38.035 -107.252)" fill="#3386af"/>
                <path id="パス_44823" data-name="パス 44823" d="M64.207,134.8l-12.09-1.283V136.9l12.09,1.037Z" transform="translate(-38.035 -106.331)" fill="#3386af"/>
                <path id="パス_44824" data-name="パス 44824" d="M64.207,140.152l-12.09-.764v3.384l12.09.519Z" transform="translate(-38.035 -105.41)" fill="#3386af"/>
                <path id="パス_44825" data-name="パス 44825" d="M64.207,145.512l-12.09-.273v3.411h12.09Z" transform="translate(-38.035 -104.493)" fill="#3386af"/>
                <path id="パス_44826" data-name="パス 44826" d="M39.943,113.917v3.111l14.082-3.63v-3.384Z" transform="translate(-39.943 -110.014)" fill="#3386af"/>
                <path id="パス_44827" data-name="パス 44827" d="M39.943,119.191v3.084l14.082-3v-3.384Z" transform="translate(-39.943 -109.093)" fill="#3386af"/>
                <path id="パス_44828" data-name="パス 44828" d="M39.943,124.465v3.084l14.082-2.4v-3.384Z" transform="translate(-39.943 -108.173)" fill="#3386af"/>
                <path id="パス_44829" data-name="パス 44829" d="M39.943,129.74v3.084l14.082-1.8v-3.384Z" transform="translate(-39.943 -107.252)" fill="#3386af"/>
                <path id="パス_44830" data-name="パス 44830" d="M39.943,135.014V138.1l14.082-1.2v-3.384Z" transform="translate(-39.943 -106.331)" fill="#3386af"/>
                <path id="パス_44831" data-name="パス 44831" d="M39.943,140.288v3.084l14.082-.6v-3.384Z" transform="translate(-39.943 -105.41)" fill="#3386af"/>
                <path id="パス_44832" data-name="パス 44832" d="M39.943,145.539v3.111H54.025v-3.411Z" transform="translate(-39.943 -104.493)" fill="#3386af"/>
                <path id="パス_44833" data-name="パス 44833" d="M39.943,113.917v3.111l14.082-3.63v-3.384Z" transform="translate(-39.943 -110.014)" fill="#3386af" opacity="0.54"/>
                <path id="パス_44834" data-name="パス 44834" d="M39.943,119.191v3.084l14.082-3v-3.384Z" transform="translate(-39.943 -109.093)" fill="#3386af" opacity="0.54"/>
                <path id="パス_44835" data-name="パス 44835" d="M39.943,124.465v3.084l14.082-2.4v-3.384Z" transform="translate(-39.943 -108.173)" fill="#3386af" opacity="0.54"/>
                <path id="パス_44836" data-name="パス 44836" d="M39.943,129.74v3.084l14.082-1.8v-3.384Z" transform="translate(-39.943 -107.252)" fill="#3386af" opacity="0.54"/>
                <path id="パス_44837" data-name="パス 44837" d="M39.943,135.014V138.1l14.082-1.2v-3.384Z" transform="translate(-39.943 -106.331)" fill="#3386af" opacity="0.54"/>
                <path id="パス_44838" data-name="パス 44838" d="M39.943,140.288v3.084l14.082-.6v-3.384Z" transform="translate(-39.943 -105.41)" fill="#3386af" opacity="0.54"/>
                <path id="パス_44839" data-name="パス 44839" d="M39.943,145.539v3.111H54.025v-3.411Z" transform="translate(-39.943 -104.493)" fill="#3386af" opacity="0.54"/>
              </g>
            </g>
            <rect id="長方形_24733" data-name="長方形 24733" width="8.351" height="67.054" transform="translate(34.332 5.349)" fill="#fff"/>
            <g id="グループ_14612" data-name="グループ 14612" transform="translate(34.332)">
              <path id="パス_44840" data-name="パス 44840" d="M61.413,102.632,73.5,98.265v3.411l-12.09,4.094Z" transform="translate(-61.413 -83.61)" fill="#3386af"/>
              <path id="パス_44841" data-name="パス 44841" d="M61.413,107.988,73.5,104.14v3.411l-12.09,3.6Z" transform="translate(-61.413 -82.689)" fill="#3386af"/>
              <path id="パス_44842" data-name="パス 44842" d="M61.413,113.371l12.09-3.357V113.4l-12.09,3.111Z" transform="translate(-61.413 -81.768)" fill="#3386af"/>
              <path id="パス_44843" data-name="パス 44843" d="M61.413,118.727l12.09-2.838v3.384l-12.09,2.593Z" transform="translate(-61.413 -80.847)" fill="#3386af"/>
              <path id="パス_44844" data-name="パス 44844" d="M61.413,124.083l12.09-2.32v3.384l-12.09,2.074Z" transform="translate(-61.413 -79.926)" fill="#3386af"/>
              <path id="パス_44845" data-name="パス 44845" d="M61.413,129.439l12.09-1.8v3.384l-12.09,1.556Z" transform="translate(-61.413 -79.005)" fill="#3386af"/>
              <path id="パス_44846" data-name="パス 44846" d="M61.413,134.8l12.09-1.283V136.9l-12.09,1.037Z" transform="translate(-61.413 -78.085)" fill="#3386af"/>
              <path id="パス_44847" data-name="パス 44847" d="M61.413,140.152l12.09-.764v3.384l-12.09.519Z" transform="translate(-61.413 -77.164)" fill="#3386af"/>
              <path id="パス_44848" data-name="パス 44848" d="M61.413,145.512l12.09-.273v3.411H61.413Z" transform="translate(-61.413 -76.247)" fill="#3386af"/>
              <path id="パス_44849" data-name="パス 44849" d="M85.947,103.368v3.111l-14.082-4.8V98.265Z" transform="translate(-59.774 -83.61)" fill="#3386af"/>
              <path id="パス_44850" data-name="パス 44850" d="M85.947,108.643v3.111l-14.082-4.2V104.14Z" transform="translate(-59.774 -82.689)" fill="#3386af"/>
              <path id="パス_44851" data-name="パス 44851" d="M85.947,113.917v3.111L71.864,113.4v-3.384Z" transform="translate(-59.774 -81.768)" fill="#3386af"/>
              <path id="パス_44852" data-name="パス 44852" d="M61.413,90.945,73.5,85.6v3.712l-12.09,5.076Z" transform="translate(-61.413 -85.595)" fill="#3386af"/>
              <path id="パス_44853" data-name="パス 44853" d="M61.413,96.816l12.09-4.8v3.712l-12.09,4.53Z" transform="translate(-61.413 -84.59)" fill="#3386af"/>
              <path id="パス_44854" data-name="パス 44854" d="M61.413,102.632,73.5,98.265v3.411l-12.09,4.094Z" transform="translate(-61.413 -83.61)" fill="#3386af" opacity="0.54"/>
              <path id="パス_44855" data-name="パス 44855" d="M61.413,107.988,73.5,104.14v3.411l-12.09,3.6Z" transform="translate(-61.413 -82.689)" fill="#3386af" opacity="0.54"/>
              <path id="パス_44856" data-name="パス 44856" d="M61.413,113.371l12.09-3.357V113.4l-12.09,3.111Z" transform="translate(-61.413 -81.768)" fill="#3386af" opacity="0.54"/>
              <path id="パス_44857" data-name="パス 44857" d="M61.413,118.727l12.09-2.838v3.384l-12.09,2.593Z" transform="translate(-61.413 -80.847)" fill="#3386af" opacity="0.54"/>
              <path id="パス_44858" data-name="パス 44858" d="M61.413,124.083l12.09-2.32v3.384l-12.09,2.074Z" transform="translate(-61.413 -79.926)" fill="#3386af" opacity="0.54"/>
              <path id="パス_44859" data-name="パス 44859" d="M61.413,129.439l12.09-1.8v3.384l-12.09,1.556Z" transform="translate(-61.413 -79.005)" fill="#3386af" opacity="0.54"/>
              <path id="パス_44860" data-name="パス 44860" d="M61.413,134.8l12.09-1.283V136.9l-12.09,1.037Z" transform="translate(-61.413 -78.085)" fill="#3386af" opacity="0.54"/>
              <path id="パス_44861" data-name="パス 44861" d="M61.413,140.152l12.09-.764v3.384l-12.09.519Z" transform="translate(-61.413 -77.164)" fill="#3386af" opacity="0.54"/>
              <path id="パス_44862" data-name="パス 44862" d="M61.413,145.512l12.09-.273v3.411H61.413Z" transform="translate(-61.413 -76.247)" fill="#3386af" opacity="0.54"/>
              <path id="パス_44863" data-name="パス 44863" d="M61.413,90.945,73.5,85.6v3.712l-12.09,5.076Z" transform="translate(-61.413 -85.595)" fill="#3386af" opacity="0.54"/>
              <path id="パス_44864" data-name="パス 44864" d="M61.413,96.816l12.09-4.8v3.712l-12.09,4.53Z" transform="translate(-61.413 -84.59)" fill="#3386af" opacity="0.54"/>
              <path id="パス_44865" data-name="パス 44865" d="M85.947,91.763v3.384l-14.082-5.84V85.6Z" transform="translate(-59.774 -85.595)" fill="#3386af"/>
              <path id="パス_44866" data-name="パス 44866" d="M85.947,97.526v3.384L71.864,95.724V92.013Z" transform="translate(-59.774 -84.59)" fill="#3386af"/>
              <path id="パス_44867" data-name="パス 44867" d="M85.947,119.191v3.084l-14.082-3v-3.384Z" transform="translate(-59.774 -80.847)" fill="#3386af"/>
              <path id="パス_44868" data-name="パス 44868" d="M85.947,124.465v3.084l-14.082-2.4v-3.384Z" transform="translate(-59.774 -79.926)" fill="#3386af"/>
              <path id="パス_44869" data-name="パス 44869" d="M85.947,129.74v3.084l-14.082-1.8v-3.384Z" transform="translate(-59.774 -79.005)" fill="#3386af"/>
              <path id="パス_44870" data-name="パス 44870" d="M85.947,135.014V138.1l-14.082-1.2v-3.384Z" transform="translate(-59.774 -78.085)" fill="#3386af"/>
              <path id="パス_44871" data-name="パス 44871" d="M85.947,140.288v3.084l-14.082-.6v-3.384Z" transform="translate(-59.774 -77.164)" fill="#3386af"/>
              <path id="パス_44872" data-name="パス 44872" d="M85.947,145.539v3.111H71.864v-3.411Z" transform="translate(-59.774 -76.247)" fill="#3386af"/>
            </g>
            <rect id="長方形_24734" data-name="長方形 24734" width="15.31" height="49.97" transform="translate(81.191 31.494)" fill="#fff"/>
            <rect id="長方形_24735" data-name="長方形 24735" width="14.737" height="47.132" transform="translate(0 26.663)" fill="#fff"/>
          </g>
          <g id="グループ_14614" data-name="グループ 14614" transform="translate(70.575 28.192)">
            <path id="パス_44873" data-name="パス 44873" d="M72.387,157.154h-.546V95.339h.573v61.814Z" transform="translate(-71.841 -95.339)" fill="#fff"/>
            <path id="パス_44874" data-name="パス 44874" d="M74.813,155.833v-51.2h.573V155.86A4.032,4.032,0,0,1,74.813,155.833Z" transform="translate(-71.375 -93.882)" fill="#fff"/>
            <path id="パス_44875" data-name="パス 44875" d="M77.763,153.364V121.433h.573v31.958C78.145,153.391,77.954,153.364,77.763,153.364Z" transform="translate(-70.913 -91.249)" fill="#fff"/>
            <path id="パス_44876" data-name="パス 44876" d="M80.735,151.681V133.56h.573v18.176A4.071,4.071,0,0,0,80.735,151.681Z" transform="translate(-70.447 -89.349)" fill="#fff"/>
            <path id="パス_44877" data-name="パス 44877" d="M83.614,151.287V138.515h.573v12.854Z" transform="translate(-69.995 -88.572)" fill="#fff"/>
          </g>
          <g id="グループ_14615" data-name="グループ 14615" transform="translate(91.425 78.08)">
            <path id="パス_44878" data-name="パス 44878" d="M90.139,149.766h-.273v-11.3h.546v11.3Z" transform="translate(-89.866 -138.467)" fill="#fff"/>
            <path id="パス_44879" data-name="パス 44879" d="M92.721,149.416v-4.885h.546v5.131C93.1,149.607,92.912,149.5,92.721,149.416Z" transform="translate(-89.418 -137.517)" fill="#fff"/>
          </g>
          <g id="グループ_14616" data-name="グループ 14616" transform="translate(47.705 69.565)">
            <path id="パス_44880" data-name="パス 44880" d="M52.07,152.694V131.106h.6v21.4A5.091,5.091,0,0,0,52.07,152.694Z" transform="translate(-52.07 -131.106)" fill="#fff"/>
            <path id="パス_44881" data-name="パス 44881" d="M55.137,151.571v-14h.6v14.164C55.546,151.68,55.355,151.626,55.137,151.571Z" transform="translate(-51.589 -130.093)" fill="#fff"/>
            <path id="パス_44882" data-name="パス 44882" d="M58.2,151.385v-6.359h.6v6.5A6.133,6.133,0,0,1,58.2,151.385Z" transform="translate(-51.108 -128.925)" fill="#fff"/>
          </g>
        </g>
        <g id="グループ_14618" data-name="グループ 14618" transform="translate(4.421 75.214)">
          <path id="パス_44883" data-name="パス 44883" d="M26.842,148.07h103.6a.251.251,0,1,1,0,.491H26.842a.278.278,0,0,1-.3-.246A.3.3,0,0,1,26.842,148.07Z" transform="translate(-26.542 -148.07)" fill="#3386af"/>
          <path id="パス_44884" data-name="パス 44884" d="M33.92,149.839h87.55c.164,0,.3.109.3.218a.278.278,0,0,1-.3.246H33.92a.278.278,0,0,1-.3-.246C33.62,149.948,33.757,149.839,33.92,149.839Z" transform="translate(-25.433 -147.792)" fill="#3386af"/>
          <path id="パス_44885" data-name="パス 44885" d="M47.368,151.656h56.738a.251.251,0,1,1,0,.491H47.368a.251.251,0,1,1,0-.491Z" transform="translate(-23.325 -147.508)" fill="#3386af"/>
        </g>
        <g id="グループ_14619" data-name="グループ 14619" transform="translate(4.421 75.214)" opacity="0.54">
          <path id="パス_44886" data-name="パス 44886" d="M26.842,148.07h103.6a.251.251,0,1,1,0,.491H26.842a.278.278,0,0,1-.3-.246A.3.3,0,0,1,26.842,148.07Z" transform="translate(-26.542 -148.07)" fill="#3386af"/>
          <path id="パス_44887" data-name="パス 44887" d="M33.92,149.839h87.55c.164,0,.3.109.3.218a.278.278,0,0,1-.3.246H33.92a.278.278,0,0,1-.3-.246C33.62,149.948,33.757,149.839,33.92,149.839Z" transform="translate(-25.433 -147.792)" fill="#3386af"/>
          <path id="パス_44888" data-name="パス 44888" d="M47.368,151.656h56.738a.251.251,0,1,1,0,.491H47.368a.251.251,0,1,1,0-.491Z" transform="translate(-23.325 -147.508)" fill="#3386af"/>
        </g>
      </g>
    </g>
  </g>
</svg>
