<svg xmlns="http://www.w3.org/2000/svg" xmlns:xlink="http://www.w3.org/1999/xlink" width="116" height="90" viewBox="0 0 116 90">
  <defs>
    <clipPath id="clip-path">
      <path id="長方形_24750" data-name="長方形 24750" d="M3,0H116a0,0,0,0,1,0,0V90a0,0,0,0,1,0,0H3a3,3,0,0,1-3-3V3A3,3,0,0,1,3,0Z" transform="translate(264 728)" opacity="0.49"/>
    </clipPath>
  </defs>
  <g id="smes" transform="translate(-264 -728)" clip-path="url(#clip-path)">
    <g id="AdobeStock_164687382_更新済み_" data-name="AdobeStock_164687382 [更新済み]" transform="translate(249.145 733.709)">
      <path id="パス_44890" data-name="パス 44890" d="M101.063,117.719V114.3L92.2,116.762v3.2Z" transform="translate(-66.98 -83.035)" fill="#3386af"/>
      <path id="パス_44891" data-name="パス 44891" d="M101.063,117.719V114.3L92.2,116.762v3.2Z" transform="translate(-66.98 -83.035)" fill="#32628d" opacity="0.54"/>
      <path id="パス_44892" data-name="パス 44892" d="M101.063,142.592V139.2L92.2,141.279v3.228Z" transform="translate(-66.98 -101.123)" fill="#3386af"/>
      <path id="パス_44893" data-name="パス 44893" d="M101.063,142.592V139.2L92.2,141.279v3.228Z" transform="translate(-66.98 -101.123)" fill="#32628d" opacity="0.54"/>
      <path id="パス_44894" data-name="パス 44894" d="M101.063,167.492V164.1L92.2,165.8v3.228Z" transform="translate(-66.98 -119.212)" fill="#3386af"/>
      <path id="パス_44895" data-name="パス 44895" d="M101.063,167.492V164.1L92.2,165.8v3.228Z" transform="translate(-66.98 -119.212)" fill="#32628d" opacity="0.54"/>
      <path id="パス_44896" data-name="パス 44896" d="M16.6,275.6H120.436a.251.251,0,1,1,0,.492H16.6a.251.251,0,1,1,0-.492Z" transform="translate(-11.841 -200.213)" fill="#3386af"/>
      <path id="パス_44897" data-name="パス 44897" d="M46.5,283.1h87.751c.164,0,.3.109.3.219a.278.278,0,0,1-.3.246H46.5a.278.278,0,0,1-.3-.246C46.2,283.209,46.337,283.1,46.5,283.1Z" transform="translate(-33.563 -205.661)" fill="#3386af"/>
      <path id="パス_44898" data-name="パス 44898" d="M103.5,290.8H160.37a.251.251,0,1,1,0,.492H103.5a.251.251,0,1,1,0-.492Z" transform="translate(-74.971 -211.255)" fill="#3386af"/>
      <path id="パス_44899" data-name="パス 44899" d="M46.5,283.1h87.751c.164,0,.3.109.3.219a.278.278,0,0,1-.3.246H46.5a.278.278,0,0,1-.3-.246C46.2,283.209,46.337,283.1,46.5,283.1Z" transform="translate(-33.563 -205.661)" fill="#3386af"/>
      <path id="パス_44900" data-name="パス 44900" d="M103.5,290.8H160.37a.251.251,0,1,1,0,.492H103.5a.251.251,0,1,1,0-.492Z" transform="translate(-74.971 -211.255)" fill="#3386af"/>
      <path id="パス_44901" data-name="パス 44901" d="M0,0V83.374H111.3V0ZM34.056,75.524H25.22V72.3l8.835-.191Zm0-6.811L25.22,69.1V65.868l8.835-.574Zm0-6.811-8.835.766V59.44l8.835-.93Zm3.556,13.622H34.657V72.132l2.954.055Zm0-6.647-2.954-.137V65.348l2.954.191Zm3.556,6.647H38.213v-3.31l2.954.055ZM56.978,21.062v6.784l-3.72,1.122-8.37,2.489V28.311l8.37-2.681v-3.31l-8.4,2.872V22.047l8.37-3.036,3.72-1.34v3.392ZM60.4,75.524H57.552V72.132l2.845.055Zm0-6.674-2.845-.109V65.348l2.845.191Zm0-6.647-2.845-.246V58.565l2.845.3Zm0-20-2.845-.6V38.213l2.845.656Zm0-6.647-2.845-.739V31.43l2.845.793Zm0-6.674-2.845-.848V24.646l2.845.9Zm-2.845-7.632V17.862l3.091,1.122,10.477,3.8v3.091L60.643,22.293ZM60.972,35.7v-3.31L71.093,35.2V38.3Zm10.121,5.69v3.091L60.972,42.316v-3.31ZM60.972,29.05V25.74l10.121,3.228v3.091Zm2.872,46.474H61v-3.31l2.845.055Zm0-6.51L61,68.9v-3.31l2.845.191Zm0-6.51L61,62.257v-3.31l2.845.3Zm0-6.538L61,55.61V52.3l2.845.438Zm0-6.51L61,48.963v-3.31l2.845.547Zm3.419,22.9v3.173H64.418V72.269l2.845.082Zm0-6.373V69.15l-1.5-.055-1.34-.055V65.786l2.845.191Zm0-6.346v3.146l-1.5-.137-1.34-.109V59.276l2.845.3ZM70.6,75.524H67.838V72.351l2.763.055Zm0-6.51v.274l-2.763-.109V66l2.763.164Zm7.249,6.51H71.175V72.269l6.674-.137Zm0-6.811-6.674.274V65.731l6.674-.438Zm3.31,6.811H78.423V72.132l2.735.055Zm10.832,0H81.706v-3.31l10.285.219Zm0-6.209L78.423,68.74V65.348l13.568.875Zm0-6.209L77.849,61.9l-6.756.574v.629l-3.255-.274V59.659l3.255.356v-.793l6.756-.711,14.142,1.5Zm0-6.209L77.849,55.091l-6.756.875v.93L67.4,56.431l-1.669-.219-1.34-.164V52.793l3.009.438,3.693.547V52.683l6.756-1.012,14.142,2.106Zm0-6.209L77.849,48.28l-6.756,1.149v1.258L67.4,50.058l-1.669-.274-1.34-.219V46.31l3.009.574,3.693.711V46.173l6.756-1.286L91.991,47.6Z" fill="none"/>
      <line id="線_1787" data-name="線 1787" x1="0.656" y2="0.082" transform="translate(45.544 56.486)" fill="#3386af"/>
      <path id="パス_44902" data-name="パス 44902" d="M136.061,190.7,124.6,189v3.392l10.777,1.4v-2.982Z" transform="translate(-90.517 -137.301)" fill="#3386af"/>
      <path id="パス_44903" data-name="パス 44903" d="M137.514,215.249,126.6,214.1v3.392l10.23.875v-3.036Z" transform="translate(-91.97 -155.535)" fill="#3386af"/>
      <path id="パス_44904" data-name="パス 44904" d="M126.6,242.292l2.982.137v-3.337L126.6,238.9Z" transform="translate(-91.97 -173.552)" fill="#3386af"/>
      <path id="パス_44905" data-name="パス 44905" d="M146.958,240.165,139.6,239.7v3.31l6.674.3V240.22Z" transform="translate(-101.414 -174.133)" fill="#3386af"/>
      <path id="パス_44906" data-name="パス 44906" d="M139.6,267.31h2.982v-3.255L139.6,264Z" transform="translate(-101.414 -191.786)" fill="#3386af"/>
      <path id="パス_44907" data-name="パス 44907" d="M126.6,267.092h2.982v-3.337L126.6,263.7Z" transform="translate(-91.97 -191.568)" fill="#3386af"/>
      <path id="パス_44908" data-name="パス 44908" d="M156.4,264.282l-3.8-.082v3.255h3.118v-3.146Z" transform="translate(-110.858 -191.931)" fill="#3386af"/>
      <path id="パス_44909" data-name="パス 44909" d="M92.2,190.313v3.228l8.863-1.149V189Z" transform="translate(-66.98 -137.301)" fill="#3386af"/>
      <path id="パス_44910" data-name="パス 44910" d="M92.2,190.313v3.228l8.863-1.149V189Z" transform="translate(-66.98 -137.301)" fill="#32628d" opacity="0.54"/>
      <path id="パス_44911" data-name="パス 44911" d="M92.2,218.058l8.835-.766V213.9l-8.835.93Z" transform="translate(-66.98 -155.39)" fill="#3386af"/>
      <path id="パス_44912" data-name="パス 44912" d="M92.2,218.058l8.835-.766V213.9l-8.835.93Z" transform="translate(-66.98 -155.39)" fill="#32628d" opacity="0.54"/>
      <path id="パス_44913" data-name="パス 44913" d="M92.2,242.575l8.835-.383V238.8l-8.835.547Z" transform="translate(-66.98 -173.479)" fill="#3386af"/>
      <path id="パス_44914" data-name="パス 44914" d="M92.2,242.575l8.835-.383V238.8l-8.835.547Z" transform="translate(-66.98 -173.479)" fill="#32628d" opacity="0.54"/>
      <path id="パス_44915" data-name="パス 44915" d="M92.2,267.092h8.835V263.7l-8.835.164Z" transform="translate(-66.98 -191.568)" fill="#3386af"/>
      <path id="パス_44916" data-name="パス 44916" d="M92.2,267.092h8.835V263.7l-8.835.164Z" transform="translate(-66.98 -191.568)" fill="#32628d" opacity="0.54"/>
      <path id="パス_44917" data-name="パス 44917" d="M136.061,117.473,124.6,114.3v3.419l10.777,2.735v-2.79Z" transform="translate(-90.517 -83.035)" fill="#3386af"/>
      <path id="パス_44918" data-name="パス 44918" d="M136.061,141.881,124.6,139.2v3.392l10.777,2.3v-2.845Z" transform="translate(-90.517 -101.123)" fill="#3386af"/>
      <line id="線_1788" data-name="線 1788" x1="0.656" y2="0.109" transform="translate(45.544 50.14)" fill="#3386af"/>
      <path id="パス_44919" data-name="パス 44919" d="M136.061,166.288,124.6,164.1v3.392l10.777,1.86v-2.927Z" transform="translate(-90.517 -119.212)" fill="#3386af"/>
      <path id="パス_44920" data-name="パス 44920" d="M259.9,165.386v3.255l6.756-1.149V164.1Z" transform="translate(-188.807 -119.212)" fill="#3386af"/>
      <path id="パス_44921" data-name="パス 44921" d="M259.9,165.386v3.255l6.756-1.149V164.1Z" transform="translate(-188.807 -119.212)" fill="#32638b" opacity="0.54"/>
      <path id="パス_44922" data-name="パス 44922" d="M259.9,190.012v3.255l6.756-.875V189Z" transform="translate(-188.807 -137.301)" fill="#3386af"/>
      <path id="パス_44923" data-name="パス 44923" d="M259.9,190.012v3.255l6.756-.875V189Z" transform="translate(-188.807 -137.301)" fill="#32638b" opacity="0.54"/>
      <path id="パス_44924" data-name="パス 44924" d="M259.9,214.611v3.255l6.756-.574V213.9Z" transform="translate(-188.807 -155.39)" fill="#3386af"/>
      <path id="パス_44925" data-name="パス 44925" d="M259.9,214.611v3.255l6.756-.574V213.9Z" transform="translate(-188.807 -155.39)" fill="#32638b" opacity="0.54"/>
      <path id="パス_44926" data-name="パス 44926" d="M260.2,242.465l6.674-.274V238.8l-6.674.41Z" transform="translate(-189.025 -173.479)" fill="#3386af"/>
      <path id="パス_44927" data-name="パス 44927" d="M260.2,242.465l6.674-.274V238.8l-6.674.41Z" transform="translate(-189.025 -173.479)" fill="#32638b" opacity="0.54"/>
      <path id="パス_44928" data-name="パス 44928" d="M260.2,267.092h6.674V263.7l-6.674.137Z" transform="translate(-189.025 -191.568)" fill="#3386af"/>
      <path id="パス_44929" data-name="パス 44929" d="M260.2,267.092h6.674V263.7l-6.674.137Z" transform="translate(-189.025 -191.568)" fill="#32638b" opacity="0.54"/>
      <path id="パス_44930" data-name="パス 44930" d="M284.6,167.492l14.142,2.407v-3.091L284.6,164.1Z" transform="translate(-206.751 -119.212)" fill="#3386af"/>
      <path id="パス_44931" data-name="パス 44931" d="M284.6,192.392l14.142,1.805v-3.091L284.6,189Z" transform="translate(-206.751 -137.301)" fill="#3386af"/>
      <path id="パス_44932" data-name="パス 44932" d="M284.6,217.292l14.142,1.2V215.4L284.6,213.9Z" transform="translate(-206.751 -155.39)" fill="#3386af"/>
      <path id="パス_44933" data-name="パス 44933" d="M286.7,242.292l13.568.574v-3.091L286.7,238.9Z" transform="translate(-208.277 -173.552)" fill="#3386af"/>
      <path id="パス_44934" data-name="パス 44934" d="M298.7,267.31h10.285v-3.091L298.7,264Z" transform="translate(-216.994 -191.786)" fill="#3386af"/>
      <path id="パス_44935" data-name="パス 44935" d="M286.7,267.092h2.735v-3.337L286.7,263.7Z" transform="translate(-208.277 -191.568)" fill="#3386af"/>
      <path id="パス_44936" data-name="パス 44936" d="M213.491,66.422,210.4,65.3v3.392l3.091,1.039,10.449,3.583V70.2Z" transform="translate(-152.848 -47.438)" fill="#3386af"/>
      <path id="パス_44937" data-name="パス 44937" d="M210.4,93.492l2.845.848V91l-2.845-.9Z" transform="translate(-152.848 -65.454)" fill="#3386af"/>
      <path id="パス_44938" data-name="パス 44938" d="M233.021,97.328,222.9,94.1v3.31l10.121,3.036Z" transform="translate(-161.928 -68.36)" fill="#3386af"/>
      <path id="パス_44939" data-name="パス 44939" d="M210.4,118.292l2.845.739v-3.337L210.4,114.9Z" transform="translate(-152.848 -83.47)" fill="#3386af"/>
      <path id="パス_44940" data-name="パス 44940" d="M233.021,121.19,222.9,118.4v3.31l10.121,2.6Z" transform="translate(-161.928 -86.013)" fill="#3386af"/>
      <path id="パス_44941" data-name="パス 44941" d="M194.7,69.178l3.72-1.258V64.5l-3.72,1.368Z" transform="translate(-141.442 -46.857)" fill="#3386af"/>
      <path id="パス_44942" data-name="パス 44942" d="M164,72.536v3.146l8.4-2.872V69.5Z" transform="translate(-119.14 -50.489)" fill="#3386af"/>
      <path id="パス_44943" data-name="パス 44943" d="M172.4,65.868,164,68.9V72.05l8.4-2.872,3.72-1.258V64.5Z" transform="translate(-119.14 -46.857)" fill="#32628b" opacity="0.54"/>
      <path id="パス_44944" data-name="パス 44944" d="M194.7,93.913l3.72-1.094V89.4l-3.72,1.2Z" transform="translate(-141.442 -64.946)" fill="#3386af"/>
      <path id="パス_44945" data-name="パス 44945" d="M164,96.481v3.146l8.4-2.517V93.8Z" transform="translate(-119.14 -68.142)" fill="#3386af"/>
      <path id="パス_44946" data-name="パス 44946" d="M172.4,90.6,164,93.284V96.43l8.4-2.517,3.72-1.094V89.4Z" transform="translate(-119.14 -64.946)" fill="#32628b" opacity="0.54"/>
      <path id="パス_44947" data-name="パス 44947" d="M194.7,118.649l3.72-.93V114.3l-3.72,1.039Z" transform="translate(-141.442 -83.035)" fill="#3386af"/>
      <path id="パス_44948" data-name="パス 44948" d="M166.5,120.234l.656.191v2.79l7.057-1.805V118.1Z" transform="translate(-120.956 -85.795)" fill="#3386af"/>
      <path id="パス_44949" data-name="パス 44949" d="M164,137.156l.684-.191L164,136.8Z" transform="translate(-119.14 -99.38)" fill="#3386af"/>
      <path id="パス_44950" data-name="パス 44950" d="M164.684,125.9l-.684.191v2.79l.684.164.656-.164v-2.79Z" transform="translate(-119.14 -91.462)" fill="#3386af"/>
      <path id="パス_44951" data-name="パス 44951" d="M172.4,115.339l-7.714,2.134-.684.191v3.146l.684-.191.656-.164,7.057-1.805,3.72-.93V114.3Z" transform="translate(-119.14 -83.035)" fill="#32628b" opacity="0.54"/>
      <path id="パス_44952" data-name="パス 44952" d="M194.7,143.385l3.72-.793V139.2l-3.72.875Z" transform="translate(-141.442 -101.123)" fill="#3386af"/>
      <path id="パス_44953" data-name="パス 44953" d="M164,160.3l.684-.137L164,160Z" transform="translate(-119.14 -116.234)" fill="#3386af"/>
      <path id="パス_44954" data-name="パス 44954" d="M166.5,144.205l.656.164v2.845l7.057-1.5V142.4Z" transform="translate(-120.956 -103.448)" fill="#3386af"/>
      <path id="パス_44955" data-name="パス 44955" d="M164.684,149l-.684.164v2.845l.684.164.656-.164v-2.845Z" transform="translate(-119.14 -108.243)" fill="#3386af"/>
      <path id="パス_44956" data-name="パス 44956" d="M172.4,140.075l-7.714,1.805-.684.164v3.146l.684-.137.656-.164,7.057-1.5,3.72-.793V139.2Z" transform="translate(-119.14 -101.123)" fill="#32628b" opacity="0.54"/>
      <path id="パス_44957" data-name="パス 44957" d="M194.7,168.148l3.72-.657V164.1l-3.72.711Z" transform="translate(-141.442 -119.212)" fill="#3386af"/>
      <path id="パス_44958" data-name="パス 44958" d="M166.5,168.177l.656.137v2.927l7.057-1.2V166.7Z" transform="translate(-120.956 -121.101)" fill="#3386af"/>
      <path id="パス_44959" data-name="パス 44959" d="M164,183.519l.684-.109L164,183.3Z" transform="translate(-119.14 -133.16)" fill="#3386af"/>
      <path id="パス_44960" data-name="パス 44960" d="M164.684,172.1l-.684.137v2.927l.684.109.656-.109v-2.927Z" transform="translate(-119.14 -125.024)" fill="#3386af"/>
      <path id="パス_44961" data-name="パス 44961" d="M172.4,164.811l-7.714,1.477-.684.137v3.146l.684-.109.656-.109,7.057-1.2,3.72-.657V164.1Z" transform="translate(-119.14 -119.212)" fill="#32628b" opacity="0.54"/>
      <path id="パス_44962" data-name="パス 44962" d="M194.7,192.884l3.72-.492V189l-3.72.547Z" transform="translate(-141.442 -137.301)" fill="#3386af"/>
      <path id="パス_44963" data-name="パス 44963" d="M164,206.664l.684-.082L164,206.5Z" transform="translate(-119.14 -150.014)" fill="#3386af"/>
      <path id="パス_44964" data-name="パス 44964" d="M166.5,192.149l.656.109v2.982l7.057-.9V191Z" transform="translate(-120.956 -138.754)" fill="#3386af"/>
      <path id="パス_44965" data-name="パス 44965" d="M164.684,195.2l-.684.109v2.982l.684.082.656-.082v-2.982Z" transform="translate(-119.14 -141.805)" fill="#3386af"/>
      <path id="パス_44966" data-name="パス 44966" d="M172.4,189.547l-7.714,1.149-.684.109v3.146l.684-.082.656-.082,7.057-.9,3.72-.492V189Z" transform="translate(-119.14 -137.301)" fill="#32628b" opacity="0.54"/>
      <path id="パス_44967" data-name="パス 44967" d="M194.7,217.62l3.72-.328V213.9l-3.72.383Z" transform="translate(-141.442 -155.39)" fill="#3386af"/>
      <path id="パス_44968" data-name="パス 44968" d="M164,229.809l.684-.055L164,229.7Z" transform="translate(-119.14 -166.868)" fill="#3386af"/>
      <path id="パス_44969" data-name="パス 44969" d="M166.5,216.121l.656.082v3.036l7.057-.6V215.3Z" transform="translate(-120.956 -156.407)" fill="#3386af"/>
      <path id="パス_44970" data-name="パス 44970" d="M164.684,218.3l-.684.082v3.036l.684.055.656-.055v-3.036Z" transform="translate(-119.14 -158.587)" fill="#3386af"/>
      <path id="パス_44971" data-name="パス 44971" d="M172.4,214.283l-7.714.821-.684.082v3.146l.684-.055.656-.055,7.057-.6,3.72-.328V213.9Z" transform="translate(-119.14 -155.39)" fill="#32628b" opacity="0.54"/>
      <path id="パス_44972" data-name="パス 44972" d="M194.7,242.356l3.72-.164V238.8l-3.72.219Z" transform="translate(-141.442 -173.479)" fill="#3386af"/>
      <path id="パス_44973" data-name="パス 44973" d="M164,252.955l.684-.027L164,252.9Z" transform="translate(-119.14 -183.722)" fill="#3386af"/>
      <path id="パス_44974" data-name="パス 44974" d="M166.5,240.092l.656.055v3.091l7.057-.3V239.6Z" transform="translate(-120.956 -174.06)" fill="#3386af"/>
      <path id="パス_44975" data-name="パス 44975" d="M164.684,241.4l-.684.055v3.091l.684.027.656-.027v-3.091Z" transform="translate(-119.14 -175.368)" fill="#3386af"/>
      <path id="パス_44976" data-name="パス 44976" d="M172.4,239.019l-7.714.492-.684.055v3.146l.684-.027.656-.027,7.057-.3,3.72-.164V238.8Z" transform="translate(-119.14 -173.479)" fill="#32628b" opacity="0.54"/>
      <path id="パス_44977" data-name="パス 44977" d="M194.7,267.092h3.72V263.7l-3.72.055Z" transform="translate(-141.442 -191.568)" fill="#3386af"/>
      <path id="パス_44978" data-name="パス 44978" d="M166.5,264.064l.656.027v3.146h7.057V263.9Z" transform="translate(-120.956 -191.713)" fill="#3386af"/>
      <path id="パス_44979" data-name="パス 44979" d="M164.684,264.5l-.684.027v3.146h1.34v-3.146Z" transform="translate(-119.14 -192.149)" fill="#3386af"/>
      <path id="パス_44980" data-name="パス 44980" d="M172.4,263.755l-7.714.164-.684.027v3.146h12.118V263.7Z" transform="translate(-119.14 -191.568)" fill="#32628b" opacity="0.54"/>
      <path id="パス_44981" data-name="パス 44981" d="M176.118,10.8,164,16.161h8.179l3.939-1.641Z" transform="translate(-119.14 -7.846)" fill="#3386af"/>
      <path id="パス_44982" data-name="パス 44982" d="M164,33.847l8.179-3.447H164Z" transform="translate(-119.14 -22.084)" fill="#3386af"/>
      <path id="パス_44983" data-name="パス 44983" d="M164,16.161v3.447l8.179-3.447,3.939-1.641V10.8Z" transform="translate(-119.14 -7.846)" fill="#32628b" opacity="0.54"/>
      <path id="パス_44984" data-name="パス 44984" d="M194.7,39.477v3.638l3.72-1.4V38Z" transform="translate(-141.442 -27.606)" fill="#3386af"/>
      <path id="パス_44985" data-name="パス 44985" d="M164,46.737v3.447l8.4-3.146V43.4Z" transform="translate(-119.14 -31.528)" fill="#3386af"/>
      <path id="パス_44986" data-name="パス 44986" d="M172.4,39.477,164,42.814v3.447l8.4-3.146,3.72-1.4V38Z" transform="translate(-119.14 -27.606)" fill="#32628b" opacity="0.54"/>
      <path id="パス_44987" data-name="パス 44987" d="M220.992,16.353,208.3,10.8v3.72l4.431,1.833,9.683,4.021V16.982Z" transform="translate(-151.322 -7.846)" fill="#3386af"/>
      <path id="パス_44988" data-name="パス 44988" d="M211.965,39.422,208.3,38v3.72l.383.137.191.082,3.091,1.122,10.449,3.857V43.525Z" transform="translate(-151.322 -27.606)" fill="#3386af"/>
      <path id="パス_44989" data-name="パス 44989" d="M210.4,143.092l2.845.6v-3.337L210.4,139.7Z" transform="translate(-152.848 -101.487)" fill="#3386af"/>
      <path id="パス_44990" data-name="パス 44990" d="M222.9,145.937l10.121,2.161V144.98L222.9,142.6Z" transform="translate(-161.928 -103.593)" fill="#3386af"/>
      <path id="パス_44991" data-name="パス 44991" d="M210.4,167.892l2.845.492v-3.337L210.4,164.5Z" transform="translate(-152.848 -119.503)" fill="#3386af"/>
      <path id="パス_44992" data-name="パス 44992" d="M222.9,170.21l2.872.492v-3.255L222.9,166.9Z" transform="translate(-161.928 -121.246)" fill="#3386af"/>
      <path id="パス_44993" data-name="パス 44993" d="M238.509,169.874,235.5,169.3v3.255l1.34.219,1.669.274,3.665.629v-3.091Z" transform="translate(-171.082 -122.99)" fill="#3386af"/>
      <path id="パス_44994" data-name="パス 44994" d="M210.4,192.692l2.845.356v-3.31L210.4,189.3Z" transform="translate(-152.848 -137.519)" fill="#3386af"/>
      <path id="パス_44995" data-name="パス 44995" d="M222.9,194.51l2.872.356V191.61l-2.872-.41Z" transform="translate(-161.928 -138.899)" fill="#3386af"/>
      <path id="パス_44996" data-name="パス 44996" d="M238.509,193.465,235.5,193v3.255l1.34.164,1.669.219,3.665.465v-3.091Z" transform="translate(-171.082 -140.207)" fill="#3386af"/>
      <path id="パス_44997" data-name="パス 44997" d="M210.4,217.492l2.845.246V214.4l-2.845-.3Z" transform="translate(-152.848 -155.535)" fill="#3386af"/>
      <path id="パス_44998" data-name="パス 44998" d="M222.9,218.737l2.872.246V215.7l-2.872-.3Z" transform="translate(-161.928 -156.48)" fill="#3386af"/>
      <path id="パス_44999" data-name="パス 44999" d="M235.5,220.028l1.34.137v-2.872l1.5-.164V217.1l-2.845-.3Z" transform="translate(-171.082 -157.497)" fill="#3386af"/>
      <path id="パス_45000" data-name="パス 45000" d="M248,218.1v3.173l3.255.274v-3.091Z" transform="translate(-180.162 -158.441)" fill="#3386af"/>
      <path id="パス_45001" data-name="パス 45001" d="M240.4,221.036l1.5.109V218l-1.5.164Z" transform="translate(-174.641 -158.369)" fill="#3386af"/>
      <path id="パス_45002" data-name="パス 45002" d="M210.4,242.292l2.845.109v-3.31L210.4,238.9Z" transform="translate(-152.848 -173.552)" fill="#3386af"/>
      <path id="パス_45003" data-name="パス 45003" d="M222.9,243.01l2.872.137v-3.255L222.9,239.7Z" transform="translate(-161.928 -174.133)" fill="#3386af"/>
      <path id="パス_45004" data-name="パス 45004" d="M248,241.3v3.173l2.763.109v-3.118Z" transform="translate(-180.162 -175.295)" fill="#3386af"/>
      <path id="パス_45005" data-name="パス 45005" d="M235.5,240.5v3.255l1.34.055,1.5.055v-3.173h0Z" transform="translate(-171.082 -174.714)" fill="#3386af"/>
      <path id="パス_45006" data-name="パス 45006" d="M210.4,267.092h2.845v-3.337L210.4,263.7Z" transform="translate(-152.848 -191.568)" fill="#3386af"/>
      <path id="パス_45007" data-name="パス 45007" d="M222.9,267.31h2.872v-3.255L222.9,264Z" transform="translate(-161.928 -191.786)" fill="#3386af"/>
      <path id="パス_45008" data-name="パス 45008" d="M235.5,264.2v3.255h2.845v-3.173h0Z" transform="translate(-171.082 -191.931)" fill="#3386af"/>
      <path id="パス_45009" data-name="パス 45009" d="M248,267.673h2.763v-3.118L248,264.5Z" transform="translate(-180.162 -192.149)" fill="#3386af"/>
      <path id="パス_45010" data-name="パス 45010" d="M16.6,275.6H120.436a.251.251,0,1,1,0,.492H16.6a.251.251,0,1,1,0-.492Z" transform="translate(-11.841 -200.213)" fill="#3386af"/>
    </g>
  </g>
</svg>
