<svg xmlns="http://www.w3.org/2000/svg" xmlns:xlink="http://www.w3.org/1999/xlink" width="116" height="90" viewBox="0 0 116 90">
  <defs>
    <clipPath id="clip-path">
      <path id="_6669899fbfc7e73c806c7a89098cf094" data-name="6669899fbfc7e73c806c7a89098cf094" d="M3,0H116a0,0,0,0,1,0,0V90a0,0,0,0,1,0,0H3a3,3,0,0,1-3-3V3A3,3,0,0,1,3,0Z" transform="translate(740 624)" fill="#7c7c7c" style="mix-blend-mode: multiply;isolation: isolate"/>
    </clipPath>
  </defs>
  <g id="sole_proprietors" transform="translate(-740 -624)" clip-path="url(#clip-path)">
    <g id="AdobeStock_451512740_更新済み_" data-name="AdobeStock_451512740 [更新済み]" transform="translate(727.493 615.195)">
      <path id="パス_44889" data-name="パス 44889" d="M0,120.881Z" fill="#fff"/>
      <g id="グループ_14607" data-name="グループ 14607" transform="translate(11.838 16.126)">
        <g id="グループ_14603" data-name="グループ 14603">
          <ellipse id="楕円形_152" data-name="楕円形 152" cx="41.317" cy="0.689" rx="41.317" ry="0.689" transform="translate(0 85.765)" fill="#9ca9cf"/>
          <g id="グループ_14602" data-name="グループ 14602" transform="translate(2.347)">
            <g id="グループ_14595" data-name="グループ 14595" transform="translate(18.54 56.222)">
              <path id="パス_44762" data-name="パス 44762" d="M38.381,49.744h-.749c0-.359,0-.717,0-1.076,0-.137-.036-.21-.214-.254q-4.757-1.142-9.513-2.293c-.036-.008-.081-.008-.157-.016v3.626H26.236V46.093c-.149.028-.254.048-.355.073-3.062.737-6.121,1.483-9.187,2.212-.274.064-.387.153-.363.395.032.318.008.637.008.971H15.6c0-.584-.016-1.152.008-1.725.008-.25.234-.411.492-.52,2.1-.89,4.195-1.789,6.31-2.655a8.89,8.89,0,0,1,3.622-.673c1,.024,2.007-.008,3.006.052a8.392,8.392,0,0,1,2.736.693q3.046,1.275,6.084,2.567a.728.728,0,0,1,.532.709C38.373,48.708,38.381,49.22,38.381,49.744Z" transform="translate(-15.594 -23.823)" fill="#3f327a"/>
              <path id="パス_44763" data-name="パス 44763" d="M20.613,34.474h1.725V55.338H20.613Z" transform="translate(-10.079 -34.474)" fill="#3f327a"/>
            </g>
            <g id="グループ_14596" data-name="グループ 14596" transform="translate(8.19 33.52)">
              <path id="パス_44764" data-name="パス 44764" d="M16.069,24.446h-.564v-.79H10.662v2.853A2,2,0,0,0,12.656,28.5h.858a1.992,1.992,0,0,0,1.962-1.644h.6a.7.7,0,0,0,.7-.7V25.143A.706.706,0,0,0,16.069,24.446Zm.21,1.712a.206.206,0,0,1-.205.205h-.564v-1.43h.564a.206.206,0,0,1,.205.205Z" transform="translate(-10.662 -23.656)" fill="#a1b5e6"/>
            </g>
            <path id="パス_44765" data-name="パス 44765" d="M43.957,50.364l-21.726.6,1.08-1.245,8.51-7.644L27.726,17.05H18.338c-3.324,0-3.207.173-3.917,1.6-.552,1.1,2.909,34.818,3.711,35.176a2.39,2.39,0,0,0,.79.133H43.961a1.232,1.232,0,0,0,.967-.528,2.093,2.093,0,0,0,.4-1.269A1.639,1.639,0,0,0,43.957,50.364Z" transform="translate(1.593 2.606)" fill="#8da6d8"/>
            <path id="パス_44766" data-name="パス 44766" d="M16.652,35.6H40.732l-6.89-3.723-15.6.778Z" transform="translate(4.109 18.894)" fill="#8da6d8"/>
            <path id="パス_44767" data-name="パス 44767" d="M18.48,51.968c-.608-.588-4.11-31.965-3.4-33.391s.592-1.6,3.921-1.6h9.388L32.486,42Z" transform="translate(2.281 2.525)" fill="#ced8f4"/>
            <g id="グループ_14597" data-name="グループ 14597" transform="translate(17.046 82.496)">
              <path id="パス_44768" data-name="パス 44768" d="M16.768,46.994a1.844,1.844,0,0,1-.081,3.687,1.844,1.844,0,1,1,.081-3.687Z" transform="translate(-14.882 -46.993)" fill="#312a68"/>
              <path id="パス_44769" data-name="パス 44769" d="M25.435,48.8a1.842,1.842,0,0,1,3.683.077,1.842,1.842,0,1,1-3.683-.077Z" transform="translate(-3.289 -46.993)" fill="#312a68"/>
              <path id="パス_44770" data-name="パス 44770" d="M20.359,48.8c0-.387,0-.774,0-1.16.008-.435.181-.612.6-.616.532,0,1.068-.008,1.6,0,.4.008.584.185.588.592.008.8,0,1.6,0,2.4a.53.53,0,0,1-.564.588c-.548.016-1.1.016-1.64,0A.539.539,0,0,1,20.363,50C20.351,49.6,20.359,49.2,20.359,48.8Z" transform="translate(-8.867 -46.97)" fill="#312a68"/>
            </g>
            <path id="パス_44771" data-name="パス 44771" d="M26.766,15.621c2.833,1.757-1.833,6.874-1.628,14.308.02.753,4.287-.25,4.638.488a64.12,64.12,0,0,0,8.1,2.595v1.7s-8.506.641-10.912,0-3.119-7.785-3.465-10.9S26.766,15.621,26.766,15.621Z" transform="translate(11.608 1.036)" fill="#e5a1af"/>
            <path id="パス_44772" data-name="パス 44772" d="M26.383,15.606s3.2.484,2.893,9.658c-.169,5.1.149,5.166.149,5.166a2.908,2.908,0,0,0-2.813.423c-1.382.915-1.8,2.494-2.381,1.894C22.527,31.01,26.383,15.606,26.383,15.606Z" transform="translate(11.958 1.019)" fill="#73a6ef"/>
            <path id="パス_44773" data-name="パス 44773" d="M34.909,24.409c-.479-.133-4.936-.58-4.936-.58s-.8-.407-.145,1.011c.181.391-.488.911.338.983s5.875,1.237,6.125,1.221l.814-.081A2.66,2.66,0,0,0,34.909,24.409Z" transform="translate(18.301 9.994)" fill="#e5a1af"/>
            <path id="パス_44774" data-name="パス 44774" d="M23.177,44.523l-.056,4.36,2.982-.028-.02-4.791Z" transform="translate(11.216 32.284)" fill="#f2aab6"/>
            <path id="パス_44775" data-name="パス 44775" d="M29.989,45.062l-.379,4.17,5.77.177-1.358-1.064a2.783,2.783,0,0,1-1.064-2.293l.036-.919Z" transform="translate(18.345 33.381)" fill="#f2aab6"/>
            <path id="パス_44776" data-name="パス 44776" d="M21.156,28.924l5.609-.629s14.34,1.575,21.255,5.258c2.716,1.447-3.7,30.9-3.7,30.9a8.293,8.293,0,0,1-3.211-.334l.31-6.012c.121-1.656.129-3.316.085-4.976l.036-4.936a26.677,26.677,0,0,1,.121-3.308l.423-4.239a.578.578,0,0,0-.6-.637c-2.667.1-12.624-.463-15.96-2.107-2.212-1.092-4.368-3.759-5.8-5.843A2.014,2.014,0,0,1,21.156,28.924Z" transform="translate(7.092 14.96)" fill="#312a68"/>
            <path id="パス_44777" data-name="パス 44777" d="M33.648,62.357s.226-2.156.262-5.194c.085-6.757.818-17.411.584-22.476-.068-1.455-.214-2.091-.479-2.333-1.62-1.483-17.286-3.489-17.286-3.489s-1.781,8.208,3.07,9.723a24.614,24.614,0,0,0,7.559,1.181.372.372,0,0,1,.379.342l.665,8.022c.048.588.113,1.177.193,1.761L30.3,62.466A7.333,7.333,0,0,0,33.648,62.357Z" transform="translate(3.843 15.587)" fill="#3f327a"/>
            <path id="パス_44778" data-name="パス 44778" d="M31.36,43.233c-2.252,2.885-12.112,1.813-14.425,1.451a.619.619,0,0,1-.524-.576c-.125-2.087.149-4.332.407-9.175.157-2.978.056-8.361.608-11.081.645-3.175,1.62-5.839,3.078-7.2q.1-.1.205-.181a13.574,13.574,0,0,1,7.632-1.592c4.932.33,6.217,1.592,6.217,1.592a53.27,53.27,0,0,1,.012,8.462c-.246,2.256-1.112,4.892-1.2,5.581C32.412,38.346,31.36,43.233,31.36,43.233Z" transform="translate(3.81 0.183)" fill="#73a6ef"/>
            <path id="パス_44779" data-name="パス 44779" d="M26.8,17.668c-.056.322-.024,1.995-.258,4.424a37.169,37.169,0,0,1-1.8,8.49c-.749,1.16-.721.794-1.1.641-.242-.1.854-.459.9-.725,0,0,.6-3.026,1.084-5.524C26.047,22.846,26.8,17.668,26.8,17.668Z" transform="translate(11.754 3.285)" fill="#3f327a" opacity="0.13"/>
            <path id="パス_44780" data-name="パス 44780" d="M21.376,14.7c-.068,6.153,5.947,6.6,7.4,4.255a11.04,11.04,0,0,0,1.245-3.566c.06-.33.056-2.224.1-2.559.274-2.281.125-3.01-1.072-3.554a5.517,5.517,0,0,0-6.479,1.539C21.7,11.818,21.4,12.338,21.376,14.7Z" transform="translate(9.298 -6.471)" fill="#feb5bf"/>
            <path id="パス_44781" data-name="パス 44781" d="M29.48,9.892a.621.621,0,0,1-.052.484c-.81,1.064-5.278.641-5.524.641s-.979.193-.886.713a6.716,6.716,0,0,1-.947,3.481s.2-4.444.165-4.577a16.048,16.048,0,0,1,1.592-1.688l4.876.52Z" transform="translate(10.062 -6.298)" fill="#e8a89c"/>
            <path id="パス_44782" data-name="パス 44782" d="M24.079,8.3A8.69,8.69,0,0,1,31,8.522c1.209.544.991,2.752-.1,3.24-1.156.52-4.767.363-6.1.286a.529.529,0,0,0-.556.475l-.23,2.317a4.475,4.475,0,0,1-.274,1.144l-.467,1.209s-.391,2.228-.395,2.232c.008-.222-.7-1-.834-1.156a3.293,3.293,0,0,1-.886-1.362,8.4,8.4,0,0,1,.355-5.951A5.3,5.3,0,0,1,24.079,8.3Z" transform="translate(8.637 -7.684)" fill="#3f327a"/>
            <path id="パス_44783" data-name="パス 44783" d="M27.017,15.993l-.56,1.712a.506.506,0,0,0-.048.185,1.669,1.669,0,0,1-1.946,1.455,4.37,4.37,0,0,1-3.425-1.986,4.1,4.1,0,0,0,1.068-4.646.5.5,0,0,0,.56-.073.118.118,0,0,1,.2.052A4.047,4.047,0,0,0,27.017,15.993Z" transform="translate(8.927 -2.277)" fill="#f2aab6"/>
            <path id="パス_44784" data-name="パス 44784" d="M23.159,12.669a1.45,1.45,0,0,0-.621-1.245.922.922,0,0,0-1.068-.06c-.79.5-.334,1.438.093,2.168.254.439.512.778.786.842C22.99,14.522,23.139,13.35,23.159,12.669Z" transform="translate(8.929 -3.8)" fill="#feb5bf"/>
            <path id="パス_44785" data-name="パス 44785" d="M23.07,32.88c-1.475,2.547-3.957,3.1-4.872.431a49.772,49.772,0,0,1-1.322-10.239c.645-3.175,1.62-5.839,3.078-7.2a6.142,6.142,0,0,1,.753-.31C23.469,15.642,24.545,30.329,23.07,32.88Z" transform="translate(4.356 0.971)" fill="#73a6ef"/>
            <path id="パス_44786" data-name="パス 44786" d="M22.408,23.05s-4.718.411-4.569,3.147c0,0,2.156,2.792,19.675,1.06l-2.857-2.285S31.248,24.625,22.408,23.05Z" transform="translate(5.409 9.197)" fill="#feb5bf"/>
            <path id="パス_44787" data-name="パス 44787" d="M34.144,25.847a8.593,8.593,0,0,0-2.49-1.37,15.2,15.2,0,0,0-3.526-.463c-3.892-.306-3.759.625-3,1.632.467.621,3.5.475,3.5.475s2.913.834,4.706,1.177a.878.878,0,0,0,.83-1.434A.027.027,0,0,1,34.144,25.847Z" transform="translate(12.953 10.191)" fill="#feb5bf"/>
            <path id="パス_44788" data-name="パス 44788" d="M48.924,26.82H24.655v-.649a1.18,1.18,0,0,1,1.181-1.181H47.106a1.818,1.818,0,0,1,1.817,1.817Z" transform="translate(12.901 11.33)" fill="#8da6d8"/>
            <path id="パス_44789" data-name="パス 44789" d="M28.51,31.546H48.137a1.231,1.231,0,0,0,1.2-1.108l1.318-15.07a1,1,0,0,0-1.007-1.108H30.025a1.231,1.231,0,0,0-1.2,1.108l-1.318,15.07A.991.991,0,0,0,28.51,31.546Z" transform="translate(16.029 -0.459)" fill="#ced8f4"/>
            <path id="パス_44790" data-name="パス 44790" d="M28.757,31.546H48.384a1.231,1.231,0,0,0,1.2-1.108L50.9,15.368A1,1,0,0,0,49.9,14.26H30.268a1.231,1.231,0,0,0-1.2,1.108L27.75,30.438A1,1,0,0,0,28.757,31.546Z" transform="translate(16.297 -0.459)" fill="#8da6d8"/>
            <path id="パス_44791" data-name="パス 44791" d="M30.62,14.791a1.175,1.175,0,0,0-1.148,1.06s-1.737,14.663-1.7,14.232l1.261-14.663a1.181,1.181,0,0,1,1.148-1.06l18.781.145C49.352,14.5,30.62,14.791,30.62,14.791Z" transform="translate(16.328 -0.35)" fill="#a1b5e6" opacity="0.38"/>
            <path id="パス_44792" data-name="パス 44792" d="M42.036,31.887H31.177a10.5,10.5,0,0,1,.963-1.664h2.688l-1.346-5.436a2.718,2.718,0,0,1,.008-1.346l.79-3.05,3.506-.145,1.632,9.977h1.688A11.373,11.373,0,0,1,42.036,31.887Z" transform="translate(20.067 6.118)" fill="#8da6d8"/>
            <path id="パス_44793" data-name="パス 44793" d="M38.39,32.155,36.161,20.514a.61.61,0,0,0-.6-.512h-2.3a.607.607,0,0,0-.58.79l2.474,11.363Z" transform="translate(21.69 5.85)" fill="#ced8f4"/>
            <g id="グループ_14598" data-name="グループ 14598" transform="translate(0 39.963)">
              <path id="パス_44794" data-name="パス 44794" d="M43.5,26.726l3.876,45.991c.044.528-.6.629-.661.1l-5.939-46.1Z" transform="translate(30.611 -26.726)" fill="#3f327a"/>
              <path id="パス_44795" data-name="パス 44795" d="M10.638,26.726,6.761,72.718c-.044.528.6.629.661.1l5.943-46.1Z" transform="translate(-6.759 -26.726)" fill="#3f327a"/>
            </g>
            <rect id="長方形_24730" data-name="長方形 24730" width="73.624" height="2.446" transform="translate(2.182 38.005)" fill="#3f327a"/>
            <path id="パス_44796" data-name="パス 44796" d="M23.263,46.89a1.064,1.064,0,0,1,1.023-1.181c1.152-.036,2.708.04,2.933.7.359,1.064,0,3.832.862,5.117.721,1.08-3.308,1.539-5.021.818A.859.859,0,0,1,22.6,51.25,10.519,10.519,0,0,0,23.263,46.89Z" transform="translate(10.582 34.084)" fill="#3f327a"/>
            <path id="パス_44797" data-name="パス 44797" d="M28.025,48.515c-.677.665-3.6.838-4.988.258a.889.889,0,0,1-.431-.427s-.024.077-.024.081a.824.824,0,0,0,.488,1.044c1.712.721,5.762.266,5.045-.814C28.082,48.608,28.057,48.567,28.025,48.515Z" transform="translate(10.57 36.988)" fill="#f2f2f2"/>
            <g id="グループ_14599" data-name="グループ 14599" transform="translate(47.424 80.615)">
              <path id="パス_44798" data-name="パス 44798" d="M29.526,50.921c1.245.23,8.123,1.886,11.766-.012a.191.191,0,0,0,.1-.129c.1-.351.3-1.624-1.636-1.87a10.649,10.649,0,0,1-4.3-1.918,16.364,16.364,0,0,1-1.507-.846.263.263,0,0,0-.338.028c-.471.58-1.809,2.176-3.667.479a.2.2,0,0,0-.338.137l-.25,3.921A.208.208,0,0,0,29.526,50.921Z" transform="translate(-29.357 -46.097)" fill="#3f327a"/>
            </g>
            <g id="グループ_14600" data-name="グループ 14600" transform="translate(47.4 84.608)">
              <path id="パス_44799" data-name="パス 44799" d="M41.466,48.278S37.211,49.906,29.414,48l-.064.5a.777.777,0,0,0,0,.1c.008.153.052.56.314.572.338.016,7.934,1.551,11.657-.23.077-.036.133-.206.153-.29Z" transform="translate(-29.345 -48)" fill="#f2f2f2"/>
            </g>
            <path id="パス_44800" data-name="パス 44800" d="M19.824,17.877s.935,7.378.395,10.851L27.8,30C21.726,28.982,21.077,24.417,19.824,17.877Z" transform="translate(7.594 3.515)" fill="#3f327a" opacity="0.13"/>
            <path id="パス_44801" data-name="パス 44801" d="M26.458,16.051a4.671,4.671,0,0,1-4.912-3.4s.282.488.758-.02A4.7,4.7,0,0,0,26.458,16.051Z" transform="translate(9.486 -2.254)" fill="#e5a1af"/>
            <g id="グループ_14601" data-name="グループ 14601" transform="translate(9.228 26.489)">
              <path id="パス_44802" data-name="パス 44802" d="M12.52,26.39a2.645,2.645,0,0,1-1.164-1.1,1.8,1.8,0,0,1,.121-1.837c.2-.338.451-.645.677-.963.157-.222.326-.435.471-.665a1.376,1.376,0,0,0,.113-1.3,1.047,1.047,0,0,1-.069-.226,1.382,1.382,0,0,1,.58,1.019,1.8,1.8,0,0,1-.278,1.1c-.254.419-.532.818-.8,1.229-.073.113-.137.226-.2.342a1.444,1.444,0,0,0-.02,1.422C12.117,25.742,12.318,26.052,12.52,26.39Z" transform="translate(-11.157 -20.306)" fill="#ced8f4"/>
              <path id="パス_44803" data-name="パス 44803" d="M12.266,21.7c-.032.173-.056.318-.085.463a.965.965,0,0,0,.27.935,1.045,1.045,0,0,1,.359.9,1.5,1.5,0,0,1-.512.89c.032-.181.052-.314.081-.443a1.038,1.038,0,0,0-.282-1.007A1.118,1.118,0,0,1,12.266,21.7Z" transform="translate(-10.496 -18.777)" fill="#ced8f4"/>
            </g>
          </g>
        </g>
      </g>
    </g>
  </g>
</svg>
